<?xml version="1.0" encoding="UTF-8" standalone="no"?>
<svg enable-background="new 687.846 39.522 88.492 89.248" height="91.247337" viewBox="687.846 39.522 90.492 91.247336" width="90.491997" xmlns="http://www.w3.org/2000/svg">
   <path d="m772.702 103.784c-2.425 5.106-5.647 9.514-9.67 13.227-4.023 3.714-8.689 6.603-13.999 8.664-5.314 2.064-10.907 3.095-16.786 3.095-4.85 0-9.877-1.186-15.084-3.559-5.209-2.372-9.979-5.466-14.31-9.283-4.332-3.813-7.916-8.146-10.754-12.994-2.837-4.848-4.254-9.746-4.254-14.697 0-7.527.696-14.001 2.089-19.416 1.394-5.415 3.636-10.002 6.729-13.77 3.096-3.764 7.167-6.857 12.222-9.281 5.052-2.422 11.241-4.409 18.565-5.957l2.011-.155c6.6-.515 12.737.44 18.41 2.862 5.671 2.424 10.621 5.828 14.852 10.21 4.229 4.385 7.555 9.566 9.979 15.547 2.421 5.982 3.635 12.273 3.635 18.874 0 5.984-1.214 11.528-3.635 16.633zm-41.994-59.012c-1.323.022-2.607.107-3.854.255v78.102c1.245.269 2.529.456 3.854.567zm9.217 78.517c2.754-.488 5.301-1.316 7.64-2.487 4.021-2.012 7.396-4.691 10.132-8.046 2.73-3.35 4.796-7.242 6.188-11.679 1.392-4.434 2.086-9.127 2.086-14.078 0-5.052-.748-10.105-2.24-15.161-1.496-5.052-3.715-9.591-6.652-13.613-2.939-4.022-6.552-7.271-10.83-9.747-1.971-1.141-4.079-2.018-6.323-2.633v77.444zm-2.682-78.042c-1.247-.219-2.531-.363-3.854-.433v79.003c.084 0 .167 0 .25 0 1.236 0 2.438-.055 3.605-.166zm-13.049.2c-2.396.478-4.639 1.203-6.724 2.179-4.074 1.91-7.503 4.54-10.287 7.892-2.784 3.353-4.926 7.22-6.421 11.602-1.496 4.385-2.242 9.051-2.242 14.001 0 5.158.773 10.264 2.32 15.315 1.547 5.054 3.841 9.617 6.885 13.69 3.041 4.076 6.729 7.375 11.062 9.902 1.708.996 3.51 1.795 5.409 2.397z" transform="translate(1.0010083 .99933437)"/>
</svg>