<?xml version="1.0" encoding="UTF-8" standalone="no"?>
<svg
   xmlns:dc="http://purl.org/dc/elements/1.1/"
   xmlns:cc="http://creativecommons.org/ns#"
   xmlns:rdf="http://www.w3.org/1999/02/22-rdf-syntax-ns#"
   xmlns:svg="http://www.w3.org/2000/svg"
   xmlns="http://www.w3.org/2000/svg"
   xmlns:sodipodi="http://sodipodi.sourceforge.net/DTD/sodipodi-0.dtd"
   xmlns:inkscape="http://www.inkscape.org/namespaces/inkscape"
   height="522.90717"
   id="Layer_1"
   version="1.1"
   viewBox="0 0 526.90717 522.90717"
   width="526.90717"
   xml:space="preserve"
   inkscape:version="0.92.2 (5c3e80d, 2017-08-06)"
   sodipodi:docname="tagtog_cloud.svg"
   inkscape:export-filename="/media/sf_SharedBox/circle_2leafs.png"
   inkscape:export-xdpi="90"
   inkscape:export-ydpi="90"><metadata
     id="metadata3918"><rdf:RDF><cc:Work
         rdf:about=""><dc:format>image/svg+xml</dc:format><dc:type
           rdf:resource="http://purl.org/dc/dcmitype/StillImage" /><dc:title></dc:title></cc:Work></rdf:RDF></metadata><defs
     id="defs3916" /><sodipodi:namedview
     pagecolor="#ffffff"
     bordercolor="#666666"
     borderopacity="1"
     objecttolerance="10"
     gridtolerance="10"
     guidetolerance="10"
     inkscape:pageopacity="0"
     inkscape:pageshadow="2"
     inkscape:window-width="1680"
     inkscape:window-height="958"
     id="namedview3914"
     showgrid="false"
     inkscape:zoom="0.35355339"
     inkscape:cx="-822.85909"
     inkscape:cy="564.72086"
     inkscape:window-x="0"
     inkscape:window-y="23"
     inkscape:window-maximized="0"
     inkscape:current-layer="g3910"
     fit-margin-top="10"
     fit-margin-left="10"
     fit-margin-right="10"
     fit-margin-bottom="10" /><g
     id="g3910"
     transform="translate(13.358099,11.164549)"><path
       style="fill:#df4444;fill-opacity:1;fill-rule:nonzero;stroke:#e92626;stroke-width:0;stroke-linecap:square;stroke-linejoin:miter;stroke-miterlimit:0;stroke-opacity:1;stroke-dasharray:none;stroke-dashoffset:0"
       d=""
       id="path4442"
       inkscape:connector-curvature="0" /><path
       inkscape:connector-curvature="0"
       style="fill:#ff8d34;fill-opacity:1;fill-rule:nonzero;stroke:none;stroke-width:13.39443779;stroke-opacity:1"
       id="path48"
       d="m 373.83461,113.35582 c -11.05055,0 -21.699,1.6743 -31.73151,4.78183 -11.88083,-33.954922 -44.10786,-58.359602 -82.12131,-58.359602 -40.77278,0 -74.90172,28.07476 -84.37169,65.914122 -10.09919,-7.63488 -22.52936,-12.33635 -36.17829,-12.33635 -33.28516,0 -60.275011,26.98984 -60.275011,60.27503 0,8.09021 1.647517,15.77865 4.540716,22.82417 -5.746216,-1.59401 -11.679952,-2.73255 -17.935161,-2.73255 -36.995454,0 -66.9722206,29.97688 -66.9722206,66.97217 0,36.99552 29.9767666,66.97229 66.9722206,66.97229 H 373.83461 c 59.17663,0 107.15553,-47.96548 107.15553,-107.15554 0,-59.17664 -47.9789,-107.15557 -107.15553,-107.15557" /><path
       d="M 412.46799,106.39028 C 404.34281,71.960545 401.47224,62.235703 396.76836,44.446617 393.716,32.902405 388.5308,19.226144 385.26162,-11.099633 383.30958,-29.090029 309.26917,101.41809 325.53484,190.26368 c 11.90107,64.94415 48.40777,89.74722 65.40873,93.72017 14.37185,4.51595 23.79987,5.1553 31.25937,1.59123 0.65828,-0.31443 1.07219,-0.47387 1.68641,-0.84414 0.75489,-0.45517 1.82564,-1.13711 2.77502,-1.87134 0.43341,-0.33486 1.00986,-0.82738 1.40384,-1.17197 0.39902,-0.34878 0.77991,-0.71475 1.07776,-1.0045 0.24244,-0.23608 0.41142,-0.4001 0.63964,-0.63802 14.48479,-15.10491 17.86598,-50.4809 11.25609,-87.91313 -3.71735,-21.05273 -25.65592,-67.31157 -28.57371,-85.7417 z m 8.61854,179.57631 C 368.5111,213.30033 373.83461,113.35582 373.83461,113.35582 c -2.3533,4.15827 -1.37016,77.90045 59.28118,162.42691 -0.13547,0.18669 -0.19093,0.44091 -0.32587,0.63906 -0.47061,0.69196 -1.02842,1.3774 -1.60613,2.06651 -1.74061,2.07487 -3.89992,4.04757 -6.00179,5.4488 -0.8205,0.54707 -1.67395,1.03901 -2.46907,1.43859 -0.55841,0.28059 -1.05889,0.55951 -1.62639,0.59089 z"
       id="path3912"
       inkscape:connector-curvature="0"
       sodipodi:nodetypes="cscccsssssssccccsssscc"
       style="fill:#72d52b;fill-opacity:1;stroke-width:0.74595571" /><path
       d="m 295.50972,133.91548 c -21.15503,-28.35283 -27.6584,-36.13224 -39.0526,-50.58029 -7.39415,-9.376297 -17.59331,-19.859768 -32.66017,-46.380164 -8.94983,-15.727885 -24.94211,133.465214 25.33499,208.500804 36.76163,54.84496 80.12349,63.07229 97.30135,59.95197 14.98197,-1.5762 23.88572,-4.74113 29.31077,-10.97927 0.47894,-0.55044 0.85318,-0.83041 1.26951,-1.41429 1.17398,-1.64798 2.78762,-4.79227 3.48658,-6.67636 7.27778,-19.62181 -3.69769,-53.42152 -24.65709,-85.13189 -11.78787,-17.83482 -50.32274,-51.54324 -60.33334,-67.29051 z m 79.36614,161.31646 C 297.72623,249.48826 262.8386,155.67955 262.8386,155.67955 c -0.50475,4.75119 29.74225,72.01217 119.02055,125.42274 -0.049,0.22541 2.2e-4,0.48048 -0.0448,0.71564 -0.1564,0.82248 -0.39521,1.6731 -0.65133,2.53522 -0.77084,2.59587 -1.96659,5.26526 -3.3376,7.38735 -0.53511,0.82822 -1.12211,1.61903 -1.69266,2.30193 -0.40058,0.47976 -0.7487,0.93489 -1.2568,1.18953 z"
       id="path3912-0-6"
       inkscape:connector-curvature="0"
       sodipodi:nodetypes="cscccssssccccssssc"
       style="fill:#f8c918;fill-opacity:1;stroke-width:0.74595571" /></g></svg>