<?xml version="1.0" encoding="UTF-8" standalone="no"?>
<svg
   xmlns:dc="http://purl.org/dc/elements/1.1/"
   xmlns:cc="http://creativecommons.org/ns#"
   xmlns:rdf="http://www.w3.org/1999/02/22-rdf-syntax-ns#"
   xmlns:svg="http://www.w3.org/2000/svg"
   xmlns="http://www.w3.org/2000/svg"
   xmlns:sodipodi="http://sodipodi.sourceforge.net/DTD/sodipodi-0.dtd"
   xmlns:inkscape="http://www.inkscape.org/namespaces/inkscape"
   viewBox="0 0 1668 1160"
   version="1.1"
   id="svg1247"
   sodipodi:docname="automobile-154764.svg"
   inkscape:version="0.92.2 (5c3e80d, 2017-08-06)">
  <metadata
     id="metadata1253">
    <rdf:RDF>
      <cc:Work
         rdf:about="">
        <dc:format>image/svg+xml</dc:format>
        <dc:type
           rdf:resource="http://purl.org/dc/dcmitype/StillImage" />
        <dc:title></dc:title>
      </cc:Work>
    </rdf:RDF>
  </metadata>
  <defs
     id="defs1251" />
  <sodipodi:namedview
     pagecolor="#ffffff"
     bordercolor="#666666"
     borderopacity="1"
     objecttolerance="10"
     gridtolerance="10"
     guidetolerance="10"
     inkscape:pageopacity="0"
     inkscape:pageshadow="2"
     inkscape:window-width="1680"
     inkscape:window-height="958"
     id="namedview1249"
     showgrid="false"
     inkscape:zoom="0.1882494"
     inkscape:cx="834"
     inkscape:cy="580"
     inkscape:window-x="0"
     inkscape:window-y="23"
     inkscape:window-maximized="0"
     inkscape:current-layer="svg1247" />
  <g
     transform="translate(254 -254)"
     id="g1245">
    <g
       transform="translate(-13.78 3.524)"
       stroke="#000"
       id="g1069">
      <path
         transform="translate(-254 254)"
         d="m748.57 752.86c41.429-15.714 140-11.429 191.43-12.857s160.47 10.231 201.43 27.143c40.996 16.929 134.78 67.656 151.43 72.857 22.857 7.1429 41.429 7.1429 80 20s25.714 32.857 25.714 32.857l-30-4.2857-5.7562 52.92s37.185 1.3656 41.47 15.651 5.7143 31.429-2.8571 41.429-14.286-1.4286-18.572 12.857-2.8571 28.571-27.143 27.143-98.572 0-98.572 0-15.714-108.57-98.571-105.71-95.714 105.71-95.714 105.71h-500s-5.7143-104.29-97.143-105.71-98.571 105.71-98.571 105.71h-65.714l-18.571-38.571c-0.51524 0-26.243-1e-5 -21.429-17.143 4.6514-16.561-4.2857-41.429 17.143-41.429s47.143 1.4286 47.143 1.4286l15.714-44.286-41.429-2.8571s34.286-24.286 118.57-32.857 157.14-8.5714 192.86-31.429 137.14-78.571 137.14-78.571z"
         fill="none"
         stroke-width="5"
         id="path1029" />
      <path
         transform="translate(-254 254)"
         d="m282.86 1e3h92.857"
         fill="none"
         stroke-width="2"
         id="path1031" />
      <path
         transform="translate(-254 254)"
         d="m555.71 1e3h517.14"
         fill="none"
         stroke-width="2"
         id="path1033" />
      <path
         transform="translate(-254 254)"
         d="m1245.7 1e3h151.43"
         fill="none"
         stroke-width="2"
         id="path1035" />
      <path
         transform="translate(-254 254)"
         d="m618.57 847.14c15.714-18.571 123.37-81.524 151.43-88.571 29.502-7.4104 103-7.1429 103-7.1429l-7.1428 95.714z"
         fill="#f0ffeb"
         stroke-width="5"
         id="path1037" />
      <path
         transform="translate(-254 254)"
         d="m658.57 817.14v28.571"
         fill="none"
         stroke-width="2"
         id="path1039" />
      <path
         transform="translate(-254 254)"
         d="m898.7 752.84-4.2857 94.328h207.16c-11.308-20.753-46.612-74.906-72.857-88.571-14.286-10-82.878-4.3277-130.02-5.7562z"
         fill="#f0ffeb"
         stroke-width="5"
         id="path1041" />
      <path
         transform="translate(-254 254)"
         d="m1065.7 760s80 84.286 85.714 87.143 115.71 1.4286 115.71 1.4286-77.143-47.143-102.86-58.571-90-31.429-98.571-30z"
         fill="#f0ffeb"
         stroke-width="5"
         id="path1043" />
      <path
         transform="translate(-254 254)"
         d="m599.64 837.66c-14.076 30.967-18.299 71.787-18.299 94.309s4.2228 91.494 22.522 105.57"
         fill="none"
         stroke-width="5"
         id="path1045" />
      <path
         d="m632.78 993.13c-1.4076 5.6304-4.0468 81.904-6.5101 106.93-3.6703 18.715-4.9882 51.218-6.1582 87.315 0 22.522 7.038 80.233 12.668 105.57"
         fill="none"
         stroke-width="5"
         id="path1047" />
      <path
         transform="translate(-254 254)"
         d="m357.53 998.13s15.484-85.863 106.98-85.863 109.79 87.271 109.79 87.271"
         fill="none"
         stroke-width="2"
         id="path1049" />
      <path
         d="m800.29 1253.5s15.484-85.863 106.98-85.863 109.79 87.271 109.79 87.271"
         fill="none"
         stroke-width="2"
         id="path1051" />
      <path
         transform="translate(-254 254)"
         d="m323.75 943.23h63.342"
         fill="none"
         stroke-width="2"
         id="path1053" />
      <path
         transform="translate(-254 254)"
         d="m1033.2 746.17c18.299 12.668 56.304 50.673 92.901 104.16s8.4456 59.119-18.299 74.603-49.266 42.228-67.564 112.61"
         fill="none"
         stroke-width="5"
         id="path1055" />
      <path
         d="m1112.8 1196h-129.5"
         fill="none"
         stroke-width="2"
         id="path1057" />
      <path
         transform="translate(-254 254)"
         d="m540.52 941.82h544.74"
         fill="none"
         stroke-width="2"
         id="path1059" />
      <path
         transform="translate(-254 254)"
         d="m1062.7 791.21v54.896"
         fill="none"
         stroke-width="2"
         id="path1061" />
      <path
         d="m561.59 1144.9h35.419a2.9331 7.2706 0 0 1 2.9331 7.2706 2.9331 7.2706 0 0 1 -2.9331 7.2706h-35.419a2.9331 7.2706 0 0 1 -2.9331 -7.2706 2.9331 7.2706 0 0 1 2.9331 -7.2706"
         fill="#e6e6e6"
         stroke-width="2"
         id="path1063" />
      <path
         d="m819.18 1144.9h35.419a2.9331 7.2706 0 0 1 2.9331 7.2706 2.9331 7.2706 0 0 1 -2.9331 7.2706h-35.419a2.9331 7.2706 0 0 1 -2.9331 -7.2706 2.9331 7.2706 0 0 1 2.9331 -7.2706"
         fill="#e6e6e6"
         stroke-width="2"
         id="path1065" />
      <path
         d="m261.16 1146.3h15.516a1.6302 5.8692 0 0 1 1.6302 5.8692 1.6302 5.8692 0 0 1 -1.6302 5.8692h-15.516a1.6302 5.8692 0 0 1 -1.6302 -5.8692 1.6302 5.8692 0 0 1 1.6302 -5.8692"
         fill="#ffcb00"
         stroke-width="2"
         id="path1067" />
    </g>
    <g
       transform="translate(-13.78 15.524)"
       stroke="#000"
       id="g1099">
      <path
         transform="translate(-37.23 423.95)"
         d="m99.998 388.64-11.712 16.12-18.95-6.1573v-19.926l18.95-6.1573z"
         fill="none"
         stroke-width="5"
         id="path1071" />
      <path
         d="m31.742 745.02 315.3-111.2"
         fill="none"
         stroke-width="2"
         id="path1073" />
      <path
         d="m30.334 888.6 315.3 115.42"
         fill="none"
         stroke-width="2"
         id="path1075" />
      <path
         transform="translate(-254 254)"
         d="m595.41 378.78 140.76 38.005s-8.4456 49.222-8.4456 71.963v147.62c0 30.967 8.4456 78.825 8.4456 78.825l-140.76 33.782s-17.243-61.902-17.243-92.901l2.1114-185.8c-1.4076-30.967 15.132-91.494 15.132-91.494z"
         fill="#f0ffeb"
         stroke-width="5"
         id="path1077" />
      <path
         transform="translate(-254 254)"
         d="m736.17 416.79s94.309 5.6304 152.02 5.6304c106.98 0 201.29-5.6304 201.29-5.6304m-1.4076 297s-77.418-5.6304-199.88-5.6304c-68.972 0-152.02 7.038-152.02 7.038"
         fill="none"
         stroke-width="5"
         id="path1079" />
      <path
         d="m559.81 729.21h44.598a31.19 34.436 0 0 1 31.19 34.436v112.71a31.19 34.436 0 0 1 -31.19 34.436h-44.598a31.19 34.436 0 0 1 -31.19 -34.436v-112.71a31.19 34.436 0 0 1 31.19 -34.436"
         fill="none"
         stroke-width="2"
         id="path1081" />
      <path
         d="m345.78 632.78h-294.19l-14.076 102.75-7.038 11.261v142.17l7.038 14.076 15.484 101.35h288.56"
         fill="none"
         stroke-width="5"
         id="path1083" />
      <path
         transform="translate(-254 254)"
         d="m1086.7 416.79s-12.668 47.858-12.668 73.195v146.39c0 25.337 12.668 77.418 12.668 77.418l205.51 38.005 108.38 1e-5s14.076-81.641 14.076-115.42v-147.8c0-38.005-14.076-109.79-14.076-109.79h-108.38z"
         fill="none"
         stroke-width="5"
         id="path1085" />
      <path
         transform="translate(-254 254)"
         d="m1097.9 435.09s-8.4456 40.82-8.4456 56.304v144.98c0 19.706 7.038 57.711 7.038 57.711s94.309 26.744 123.87 26.744h42.228v-312.49h-47.858c-25.337 0-116.83 26.744-116.83 26.744z"
         fill="#f0ffeb"
         stroke-width="5"
         id="path1087" />
      <path
         transform="translate(-254 254)"
         d="m1292.2 378.78s30.967 40.82 30.967 111.2v146.39c0 64.749-30.967 116.83-30.967 116.83"
         fill="none"
         stroke-width="2"
         id="path1089" />
      <path
         transform="translate(-254 254)"
         d="m578.52 489.98 32.375-32.375v-40.82 112.61"
         fill="none"
         stroke-width="2"
         id="path1091" />
      <path
         d="m323.82 865.04 32.375-32.375v-40.82 112.61"
         fill="none"
         stroke-width="2"
         id="path1093" />
      <path
         d="m1005.1 787.62-32.375-32.375v-40.82 112.61"
         fill="none"
         stroke-width="2"
         id="path1095" />
      <path
         transform="translate(-254 254)"
         d="m595.41 378.78s-42.228 78.825-42.228 111.2v146.39c0 40.82 42.228 114.02 42.228 114.02"
         fill="none"
         stroke-width="2"
         id="path1097" />
    </g>
    <path
       d="m-106.79 740.92 1.4076-91.494s5.6304-23.929-25.337-25.337-26.744 2.8152-26.744 2.8152l1.4076 415.24h28.152c28.152 0 22.522-22.522 22.522-22.522l-1e-5 -95.716c-12.677 0-11.261-9.6142-11.261-16.891 0-16.95-1e-5 -136.54-1e-5 -149.21 0.45035-18.89 9.8532-16.891 9.8532-16.891z"
       fill="none"
       stroke="#000"
       stroke-width="5"
       id="path1101" />
    <path
       d="m-155.99 646.16h49.266"
       fill="none"
       stroke="#000"
       stroke-width="2.2"
       id="path1103" />
    <path
       d="m-155.14 1020.4h49.266"
       fill="none"
       stroke="#000"
       stroke-width="2.2"
       id="path1105" />
    <path
       d="m-156.69 705.06h49.266"
       fill="none"
       stroke="#000"
       stroke-width="2.2"
       id="path1107" />
    <path
       d="m-153.88 964.87h49.266"
       fill="none"
       stroke="#000"
       stroke-width="2.2"
       id="path1109" />
    <path
       d="m-147.1 703.82v260.41"
       fill="none"
       stroke="#000"
       stroke-width="2"
       id="path1111" />
    <path
       d="m-137.24 705.39v260.41"
       fill="none"
       stroke="#000"
       stroke-width="2"
       id="path1113" />
    <g
       transform="translate(-13.78 15.524)"
       stroke="#000"
       id="g1157">
      <path
         d="m494.57 641.61c41.429 15.714 140 11.429 191.43 12.857s160.47-10.231 201.43-27.143c40.996-16.929 134.78-67.656 151.43-72.857 22.857-7.1429 41.429-7.1429 80-20s25.714-32.857 25.714-32.857l-30 4.2857-5.7562-52.92s37.185-1.3656 41.47-15.651 5.7143-31.429-2.8571-41.429-14.286 1.4286-18.572-12.857-2.8571-28.571-27.143-27.143-98.572 0-98.572 0-15.714 108.57-98.571 105.71-95.714-105.71-95.714-105.71h-500s-5.7143 104.29-97.143 105.71-98.571-105.71-98.571-105.71h-65.714l-18.571 38.571c-0.51524 0-26.243 1e-5 -21.429 17.143 4.6514 16.561-4.2857 41.429 17.143 41.429s47.143-1.4286 47.143-1.4286l15.714 44.286-41.429 2.8571s34.286 24.286 118.57 32.857 157.14 8.5714 192.86 31.429 137.14 78.571 137.14 78.571z"
         fill="none"
         stroke-width="5"
         id="path1115" />
      <path
         d="m28.857 394.47h92.857"
         fill="none"
         stroke-width="2"
         id="path1117" />
      <path
         d="m301.71 394.47h517.14"
         fill="none"
         stroke-width="2"
         id="path1119" />
      <path
         d="m991.71 394.47h151.43"
         fill="none"
         stroke-width="2"
         id="path1121" />
      <path
         d="m364.57 547.33c15.714 18.571 123.37 81.524 151.43 88.571 29.502 7.4104 103 7.1429 103 7.1429l-7.1428-95.714z"
         fill="#f0ffeb"
         stroke-width="5"
         id="path1123" />
      <path
         d="m404.57 577.33v-28.571"
         fill="none"
         stroke-width="2"
         id="path1125" />
      <path
         d="m644.7 641.63-4.2857-94.328h207.16c-11.308 20.753-46.612 74.906-72.857 88.571-14.286 10-82.878 4.3277-130.02 5.7562z"
         fill="#f0ffeb"
         stroke-width="5"
         id="path1127" />
      <path
         d="m811.71 634.47s80-84.286 85.714-87.143 115.71-1.4286 115.71-1.4286-77.143 47.143-102.86 58.571-90 31.429-98.571 30z"
         fill="#f0ffeb"
         stroke-width="5"
         id="path1129" />
      <path
         d="m345.64 556.81c-14.076-30.967-18.299-71.787-18.299-94.309s4.2228-91.494 22.522-105.57"
         fill="none"
         stroke-width="5"
         id="path1131" />
      <path
         d="m632.78 655.34c-1.4076-5.6304-4.0468-81.904-6.5101-106.93-3.6703-18.715-4.9882-51.218-6.1582-87.315 0-22.522 7.038-80.233 12.668-105.57"
         fill="none"
         stroke-width="5"
         id="path1133" />
      <path
         d="m103.53 396.34s15.484 85.863 106.98 85.863 109.79-87.271 109.79-87.271"
         fill="none"
         stroke-width="2"
         id="path1135" />
      <path
         d="m800.29 394.94s15.484 85.863 106.98 85.863 109.79-87.271 109.79-87.271"
         fill="none"
         stroke-width="2"
         id="path1137" />
      <path
         d="m69.747 451.24h63.342"
         fill="none"
         stroke-width="2"
         id="path1139" />
      <path
         d="m779.17 648.3c18.299-12.668 56.304-50.673 92.901-104.16s8.4456-59.119-18.299-74.603-49.266-42.228-67.564-112.61"
         fill="none"
         stroke-width="5"
         id="path1141" />
      <path
         d="m1112.8 452.43h-129.5"
         fill="none"
         stroke-width="2"
         id="path1143" />
      <path
         d="m286.52 452.65h544.74"
         fill="none"
         stroke-width="2"
         id="path1145" />
      <path
         d="m808.73 603.26v-54.896"
         fill="none"
         stroke-width="2"
         id="path1147" />
      <path
         transform="scale(1,-1)"
         d="m561.59-503.55h35.419a2.9331 7.2706 0 0 1 2.9331 7.2706 2.9331 7.2706 0 0 1 -2.9331 7.2706h-35.419a2.9331 7.2706 0 0 1 -2.9331 -7.2706 2.9331 7.2706 0 0 1 2.9331 -7.2706"
         fill="#e6e6e6"
         stroke-width="2"
         id="path1149" />
      <path
         transform="scale(1,-1)"
         d="m819.18-503.55h35.419a2.9331 7.2706 0 0 1 2.9331 7.2706 2.9331 7.2706 0 0 1 -2.9331 7.2706h-35.419a2.9331 7.2706 0 0 1 -2.9331 -7.2706 2.9331 7.2706 0 0 1 2.9331 -7.2706"
         fill="#e6e6e6"
         stroke-width="2"
         id="path1151" />
      <path
         transform="scale(1,-1)"
         d="m261.16-502.15h15.516a1.6302 5.8692 0 0 1 1.6302 5.8692 1.6302 5.8692 0 0 1 -1.6302 5.8692h-15.516a1.6302 5.8692 0 0 1 -1.6302 -5.8692 1.6302 5.8692 0 0 1 1.6302 -5.8692"
         fill="#ffcb00"
         stroke-width="2"
         id="path1153" />
      <path
         transform="translate(941.34 284.01)"
         d="m76.01 211.28c0 9.3287-7.5624 16.891-16.891 16.891s-16.891-7.5624-16.891-16.891 7.5624-16.891 16.891-16.891 16.891 7.5624 16.891 16.891z"
         fill="#fff"
         stroke-width="2"
         id="path1155" />
    </g>
    <path
       d="m-126.57 704.93v260.41"
       fill="none"
       stroke="#000"
       stroke-width="2"
       id="path1159" />
    <path
       d="m-153.88 992.49v-26.04h45.043v52.081h-45.043v-26.04z"
       fill="#ffffc0"
       id="path1161" />
    <path
       d="m-153.88 675.78v-27.448h45.043v54.896h-45.043v-27.448z"
       fill="#ffffc0"
       id="path1163" />
    <path
       d="m-157.39 624.38s-4.2228-12.668-18.299-12.668-14.076 8.4456-14.076 8.4456v423.69s1.4076 9.8532 14.076 9.8532 18.299-9.8532 18.299-9.8532"
       fill="none"
       stroke="#000"
       stroke-width="5"
       id="path1165" />
    <path
       d="m-191.18 624.38s-35.19-1.4076-35.19 21.114v371.6c0 22.522 36.597 25.337 36.597 25.337"
       fill="none"
       stroke="#000"
       stroke-width="5"
       id="path1167" />
    <path
       d="m-208.77 648.31h1.4076a7.7418 6.2844 0 0 1 7.7418 6.2844v22.621a7.7418 6.2844 0 0 1 -7.7418 6.2844h-1.4076a7.7418 6.2844 0 0 1 -7.7418 -6.2844v-22.621a7.7418 6.2844 0 0 1 7.7418 -6.2844"
       fill="none"
       stroke="#000"
       stroke-width="2"
       id="path1169" />
    <path
       d="m-208.77 985.57h1.4076a7.7418 6.2844 0 0 1 7.7418 6.2844v22.621a7.7418 6.2844 0 0 1 -7.7418 6.2844h-1.4076a7.7418 6.2844 0 0 1 -7.7418 -6.2844v-22.621a7.7418 6.2844 0 0 1 7.7418 -6.2844"
       fill="none"
       stroke="#000"
       stroke-width="2"
       id="path1171" />
    <path
       d="m-62.939 645.49h30.967v377.24h-30.967z"
       fill="none"
       stroke="#000"
       stroke-width="2"
       id="path1173" />
    <path
       d="m1200.9 633.86v73.195h67.564v-83.048l-25.337-14.076z"
       fill="none"
       stroke="#000"
       stroke-width="5"
       id="path1175" />
    <path
       d="m1200.9 963.24h67.564v78.825l-23.929 14.076-43.635-18.299z"
       fill="none"
       stroke="#000"
       stroke-width="5"
       id="path1177" />
    <path
       d="m1200.9 692.98v284.33"
       fill="none"
       stroke="#000"
       stroke-width="5"
       id="path1179" />
    <path
       d="m1268.5 693.57v284.33"
       fill="none"
       stroke="#000"
       stroke-width="5"
       id="path1181" />
    <path
       d="m1216.6 759.51h14.076v147.8h-14.076z"
       fill="none"
       stroke="#000"
       stroke-width="2"
       id="path1183" />
    <path
       d="m1224.2 758.1v-53.489"
       fill="none"
       stroke="#000"
       stroke-width="2"
       id="path1185" />
    <path
       d="m1224.2 961.98v-53.489"
       fill="none"
       stroke="#000"
       stroke-width="2"
       id="path1187" />
    <path
       d="m1254.6 707.43v256.18"
       fill="none"
       stroke="#000"
       stroke-width="2"
       id="path1189" />
    <path
       d="m1268.8 624.97s4.2228-12.668 18.299-12.668 14.076 8.4456 14.076 8.4456v423.69s-1.4076 9.8532-14.076 9.8532-18.299-9.8532-18.299-9.8532"
       fill="none"
       stroke="#000"
       stroke-width="5"
       id="path1191" />
    <path
       d="m1302.5 624.97s35.19-1.4076 35.19 21.114v371.6c0 22.522-36.597 25.337-36.597 25.337"
       fill="none"
       stroke="#000"
       stroke-width="5"
       id="path1193" />
    <path
       transform="scale(-1,1)"
       d="m-1322.1 648.9h1.4076a7.7418 6.2844 0 0 1 7.7418 6.2844v22.621a7.7418 6.2844 0 0 1 -7.7418 6.2844h-1.4076a7.7418 6.2844 0 0 1 -7.7418 -6.2844v-22.621a7.7418 6.2844 0 0 1 7.7418 -6.2844"
       fill="none"
       stroke="#000"
       stroke-width="2"
       id="path1195" />
    <path
       transform="scale(-1,1)"
       d="m-1322.1 986.17h1.4076a7.7418 6.2844 0 0 1 7.7418 6.2844v22.621a7.7418 6.2844 0 0 1 -7.7418 6.2844h-1.4076a7.7418 6.2844 0 0 1 -7.7418 -6.2844v-22.621a7.7418 6.2844 0 0 1 7.7418 -6.2844"
       fill="none"
       stroke="#000"
       stroke-width="2"
       id="path1197" />
    <path
       d="m1199.7 632.83 67.564 74.603"
       fill="none"
       stroke="#000"
       stroke-width="2"
       id="path1199" />
    <path
       d="m1199.7 708.02 67.564-73.195"
       fill="none"
       stroke="#000"
       stroke-width="2"
       id="path1201" />
    <path
       d="m1199.9 962.98 67.564 74.603"
       fill="none"
       stroke="#000"
       stroke-width="2"
       id="path1203" />
    <path
       d="m1199.9 1038.2 67.564-73.195"
       fill="none"
       stroke="#000"
       stroke-width="2"
       id="path1205" />
    <path
       transform="translate(78.489 1074.7)"
       d="m195.66 202.84a76.01 76.01 0 1 1 -152.02 0 76.01 76.01 0 1 1 152.02 0z"
       fill="#c8c8c8"
       stroke="#000"
       stroke-width="2"
       id="path1207" />
    <path
       transform="translate(94.676 1204.9)"
       d="m147.8 72.633a44.339 44.339 0 1 1 -88.678 0 44.339 44.339 0 1 1 88.678 0z"
       fill="#fff"
       stroke="#000"
       stroke-width="2"
       id="path1209" />
    <path
       transform="translate(78.489 187.66)"
       d="m195.66 202.84a76.01 76.01 0 1 1 -152.02 0 76.01 76.01 0 1 1 152.02 0z"
       fill="#c8c8c8"
       stroke="#000"
       stroke-width="2"
       id="path1211" />
    <path
       transform="translate(94.676 317.86)"
       d="m147.8 72.633a44.339 44.339 0 1 1 -88.678 0 44.339 44.339 0 1 1 88.678 0z"
       fill="#fff"
       stroke="#000"
       stroke-width="2"
       id="path1213" />
    <path
       transform="translate(773.03 187.66)"
       d="m195.66 202.84a76.01 76.01 0 1 1 -152.02 0 76.01 76.01 0 1 1 152.02 0z"
       fill="#c8c8c8"
       stroke="#000"
       stroke-width="2"
       id="path1215" />
    <path
       transform="translate(789.21 317.86)"
       d="m147.8 72.633a44.339 44.339 0 1 1 -88.678 0 44.339 44.339 0 1 1 88.678 0z"
       fill="#fff"
       stroke="#000"
       stroke-width="2"
       id="path1217" />
    <path
       transform="translate(773.03 1074.7)"
       d="m195.66 202.84a76.01 76.01 0 1 1 -152.02 0 76.01 76.01 0 1 1 152.02 0z"
       fill="#c8c8c8"
       stroke="#000"
       stroke-width="2"
       id="path1219" />
    <path
       transform="translate(789.21 1204.9)"
       d="m147.8 72.633a44.339 44.339 0 1 1 -88.678 0 44.339 44.339 0 1 1 88.678 0z"
       fill="#fff"
       stroke="#000"
       stroke-width="2"
       id="path1221" />
    <path
       d="m1338.5 829.07h40.82"
       fill="none"
       stroke="#000"
       stroke-width="5"
       id="path1223" />
    <path
       transform="translate(1441.3 600.31)"
       d="m-54.896 229.58a4.2228 4.2228 0 1 1 -8.4456 0 4.2228 4.2228 0 1 1 8.4456 0z"
       fill="#3c3c3c"
       stroke="#000"
       stroke-width="5"
       id="path1225" />
    <path
       d="m778.06 845.37-38.709-38.709"
       fill="none"
       stroke="#000"
       stroke-width="2"
       id="path1227" />
    <path
       transform="translate(-93.238 465.33)"
       d="m-77.418 188.76c0 2.3322-1.8906 4.2228-4.2228 4.2228s-4.2228-1.8906-4.2228-4.2228 1.8906-4.2228 4.2228-4.2228 4.2228 1.8906 4.2228 4.2228z"
       fill="#3c3c3c"
       stroke="#000"
       stroke-width="2"
       id="path1229" />
    <path
       transform="translate(-93.238 585.44)"
       d="m-77.418 188.76c0 2.3322-1.8906 4.2228-4.2228 4.2228s-4.2228-1.8906-4.2228-4.2228 1.8906-4.2228 4.2228-4.2228 4.2228 1.8906 4.2228 4.2228z"
       fill="#3c3c3c"
       stroke="#000"
       stroke-width="2"
       id="path1231" />
    <path
       transform="translate(-93.238 705.56)"
       d="m-77.418 188.76c0 2.3322-1.8906 4.2228-4.2228 4.2228s-4.2228-1.8906-4.2228-4.2228 1.8906-4.2228 4.2228-4.2228 4.2228 1.8906 4.2228 4.2228z"
       fill="#3c3c3c"
       stroke="#000"
       stroke-width="2"
       id="path1233" />
    <path
       transform="translate(-93.238 825.67)"
       d="m-77.418 188.76c0 2.3322-1.8906 4.2228-4.2228 4.2228s-4.2228-1.8906-4.2228-4.2228 1.8906-4.2228 4.2228-4.2228 4.2228 1.8906 4.2228 4.2228z"
       fill="#3c3c3c"
       stroke="#000"
       stroke-width="2"
       id="path1235" />
    <path
       transform="translate(1367.8 465.77)"
       d="m-77.418 188.76c0 2.3322-1.8906 4.2228-4.2228 4.2228s-4.2228-1.8906-4.2228-4.2228 1.8906-4.2228 4.2228-4.2228 4.2228 1.8906 4.2228 4.2228z"
       fill="#3c3c3c"
       stroke="#000"
       stroke-width="2"
       id="path1237" />
    <path
       transform="translate(1367.8 585.89)"
       d="m-77.418 188.76c0 2.3322-1.8906 4.2228-4.2228 4.2228s-4.2228-1.8906-4.2228-4.2228 1.8906-4.2228 4.2228-4.2228 4.2228 1.8906 4.2228 4.2228z"
       fill="#3c3c3c"
       stroke="#000"
       stroke-width="2"
       id="path1239" />
    <path
       transform="translate(1367.8 706)"
       d="m-77.418 188.76c0 2.3322-1.8906 4.2228-4.2228 4.2228s-4.2228-1.8906-4.2228-4.2228 1.8906-4.2228 4.2228-4.2228 4.2228 1.8906 4.2228 4.2228z"
       fill="#3c3c3c"
       stroke="#000"
       stroke-width="2"
       id="path1241" />
    <path
       transform="translate(1367.8 826.12)"
       d="m-77.418 188.76c0 2.3322-1.8906 4.2228-4.2228 4.2228s-4.2228-1.8906-4.2228-4.2228 1.8906-4.2228 4.2228-4.2228 4.2228 1.8906 4.2228 4.2228z"
       fill="#3c3c3c"
       stroke="#000"
       stroke-width="2"
       id="path1243" />
  </g>
</svg>
