<?xml version="1.0" encoding="UTF-8" standalone="no"?>
<!-- Generator: Adobe Illustrator 19.0.0, SVG Export Plug-In . SVG Version: 6.00 Build 0)  -->

<svg
   xmlns:dc="http://purl.org/dc/elements/1.1/"
   xmlns:cc="http://creativecommons.org/ns#"
   xmlns:rdf="http://www.w3.org/1999/02/22-rdf-syntax-ns#"
   xmlns:svg="http://www.w3.org/2000/svg"
   xmlns="http://www.w3.org/2000/svg"
   xmlns:sodipodi="http://sodipodi.sourceforge.net/DTD/sodipodi-0.dtd"
   xmlns:inkscape="http://www.inkscape.org/namespaces/inkscape"
   version="1.1"
   id="Layer_1"
   x="0px"
   y="0px"
   viewBox="0 0 512 512"
   style="enable-background:new 0 0 512 512;"
   xml:space="preserve"
   sodipodi:docname="robot_office.svg"
   inkscape:version="0.92.2 (5c3e80d, 2017-08-06)"><metadata
     id="metadata5924"><rdf:RDF><cc:Work
         rdf:about=""><dc:format>image/svg+xml</dc:format><dc:type
           rdf:resource="http://purl.org/dc/dcmitype/StillImage" /><dc:title></dc:title></cc:Work></rdf:RDF></metadata><defs
     id="defs5922"><inkscape:path-effect
       effect="spiro"
       id="path-effect4105-2"
       is_visible="true" /><inkscape:path-effect
       effect="spiro"
       id="path-effect4059-3"
       is_visible="true" /><inkscape:path-effect
       effect="spiro"
       id="path-effect4047-3"
       is_visible="true" /><inkscape:path-effect
       effect="spiro"
       id="path-effect4105"
       is_visible="true" /><inkscape:path-effect
       effect="spiro"
       id="path-effect4083"
       is_visible="true" /><inkscape:path-effect
       effect="spiro"
       id="path-effect4059"
       is_visible="true" /><inkscape:path-effect
       effect="spiro"
       id="path-effect4047"
       is_visible="true" /></defs><sodipodi:namedview
     pagecolor="#ffffff"
     bordercolor="#666666"
     borderopacity="1"
     objecttolerance="10"
     gridtolerance="10"
     guidetolerance="10"
     inkscape:pageopacity="0"
     inkscape:pageshadow="2"
     inkscape:window-width="1680"
     inkscape:window-height="958"
     id="namedview5920"
     showgrid="false"
     inkscape:snap-nodes="false"
     inkscape:zoom="0.4609375"
     inkscape:cx="-418.5422"
     inkscape:cy="223.93538"
     inkscape:window-x="21"
     inkscape:window-y="40"
     inkscape:window-maximized="0"
     inkscape:current-layer="Layer_1" /><rect
     x="191.825"
     y="208.645"
     style="fill:#007fa1;fill-opacity:1"
     width="128.351"
     height="34.782"
     id="rect5835" /><path
     style="fill:#57c8df;fill-opacity:1"
     d="M364.126,81.047v136.721h-43.951H191.825h-43.951V81.047c0-15.977,12.955-28.932,28.932-28.932h79.2  h79.189C351.182,52.116,364.126,65.071,364.126,81.047z"
     id="path5837" /><path
     style="fill:#28bee5;fill-opacity:1"
     d="M196.192,52.116h-19.387c-15.977,0-28.932,12.955-28.932,28.932v136.721h19.387V81.047  C167.261,65.071,180.216,52.116,196.192,52.116z"
     id="path5839" /><g
     id="g5845"><rect
       x="171.606"
       y="363.784"
       style="fill:#45bef9;fill-opacity:1"
       width="33.413"
       height="121.303"
       id="rect5841" /><rect
       x="306.992"
       y="363.784"
       style="fill:#45bef9;fill-opacity:1"
       width="33.402"
       height="121.303"
       id="rect5843" /></g><path
     style="fill:#3d9bd1;fill-opacity:1"
     d="M306.992,364.924v42.103h33.402v-42.103H306.992z M171.606,407.027h33.413v-42.103h-33.413V407.027z"
     id="path5847" /><polygon
     id="polygon5859"
     points="152.265,512 152.265,471.562 171.606,471.562 205.019,471.562 224.36,471.562 224.36,512 "
     style="fill:#28e2f9;fill-opacity:1" /><polygon
     id="polygon5861"
     points="287.651,512 287.651,471.562 306.992,471.562 340.394,471.562 359.735,471.562 359.735,512 "
     style="fill:#28e2f9;fill-opacity:1" /><path
     inkscape:connector-curvature="0"
     id="path5863"
     d="m 416.253,259.3909 v 95.40986 h -31.885 v -75.26328 -23.89731 -17.91517 0 c 17.61,0 31.885,9.70026 31.885,21.6659 z"
     style="fill:#3d9bd1;fill-opacity:1;stroke-width:0.82430577" /><path
     inkscape:connector-curvature="0"
     id="path5865"
     d="m 128.39903,280.90736 v 77.72856 H 96.514031 v -98.53505 c 0,-12.35758 14.274999,-22.37487 31.884999,-22.37487 v 0 18.50199 z"
     style="fill:#3d9bd1;fill-opacity:1;stroke-width:0.83769721" /><path
     style="fill:#2bf7d8;fill-opacity:1"
     d="M364.126,299.261v78.048h-23.731v-0.011h-33.402v0.011H205.019v-0.011h-33.413v0.011h-23.731v-78.048  v-35.17v-26.366h43.951h128.351h43.951v26.366L364.126,299.261L364.126,299.261z"
     id="path5869" /><rect
     x="147.874"
     y="237.725"
     style="fill:#4eefcd;fill-opacity:1"
     width="38.043"
     height="139.572"
     id="rect5871" /><g
     id="g5889" /><g
     id="g5891" /><g
     id="g5893" /><g
     id="g5895" /><g
     id="g5897" /><g
     id="g5899" /><g
     id="g5901" /><g
     id="g5903" /><g
     id="g5905" /><g
     id="g5907" /><g
     id="g5909" /><g
     id="g5911" /><g
     id="g5913" /><g
     id="g5915" /><g
     id="g5917" /><path
     style="fill:#c1b9e3;fill-opacity:1;stroke:none;stroke-width:1px;stroke-linecap:butt;stroke-linejoin:miter;stroke-opacity:1"
     d="m 149.15254,72.135593 35.25424,18.983051 h 140.47458 l 35.98837,-23.70555 -3.6547,-5.420128 -5.01786,-5.09131 -9.46048,-4.178271 -9.25865,-0.875141 -36.87274,-0.18345 -39.66374,-0.06718 -46.77479,0.368425 -27.23273,-0.587086 -12.23546,1.125792 -5.15641,1.560683 -6.63734,4.016344 -3.05523,2.678353 -2.82486,3.609138 -2.3621,3.777703 z"
     id="path6087"
     inkscape:connector-curvature="0"
     sodipodi:nodetypes="ccccccccccccccccccc" /><rect
     style="opacity:1;fill:#6cb3ef;fill-opacity:1;stroke:none;stroke-width:1.01391721;stroke-opacity:1"
     id="rect6632"
     width="19.893425"
     height="47.562134"
     x="127.632"
     y="251.69885" /><rect
     style="opacity:1;fill:#45bef9;fill-opacity:1;stroke:none;stroke-width:1.02764595;stroke-opacity:1"
     id="rect6632-1"
     width="20.435797"
     height="47.562134"
     x="364.12601"
     y="251.69887" /><path
     style="fill:#a395db;fill-opacity:1;stroke:none;stroke-width:1px;stroke-linecap:butt;stroke-linejoin:miter;stroke-opacity:1"
     d="m 167.25424,81.830507 0.40678,-6.372881 0.67796,-5.355932 0.94916,-4.20339 1.35593,-2.983051 1.49152,-1.830508 2.1695,-1.627119 2.16949,-1.016949 5.15254,-1.898305 7.45763,-2.372882 5.55932,-1.423728 3.59322,-0.61017 0.33898,-0.20339 0.61017,-0.135593 -14.71186,-0.338983 h -2.44068 l -9.01695,0.813559 -2.71186,0.40678 -3.59323,1.016949 -1.15216,0.475358 -0.96722,0.395576 -1.60943,0.790083 -1.69491,1.186441 -2.77967,1.898305 -2.71186,2.440678 -2.44068,3.18644 -2.44068,3.864407 -1.22033,2.508475 -0.61017,1.830508 z"
     id="path6658"
     inkscape:connector-curvature="0"
     sodipodi:nodetypes="cccccccccccccccccccccccccccccc" /><g
     transform="matrix(0.66967246,0,0,0.74394165,163.99705,40.557983)"
     id="g6789"
     style="fill:#b7f5ff;fill-opacity:1;stroke:none;stroke-opacity:1"><g
       id="g6787"
       style="fill:#b7f5ff;fill-opacity:1;stroke:none;stroke-opacity:1"><path
         inkscape:connector-curvature="0"
         d="m 62.883,208.243 c 47.701,3.236 67.61,-56.504 67.61,-56.504 0,0 1.852,-8.331 12.964,-8.331 h 1.02 c 11.11,0 12.963,8.331 12.963,8.331 0,0 19.91,59.74 67.61,56.504 56.545,-3.832 78.718,-120.862 50.933,-127.809 -27.781,-6.946 -93.999,29.632 -108.357,37.966 -14.359,8.337 -23.149,7.878 -23.149,7.878 h -1.02 c 0,0 -8.79,0.458 -23.149,-7.878 C 105.949,110.066 39.731,73.488 11.948,80.434 -15.838,87.381 6.343,204.417 62.883,208.243 Z m 113.872,-71.877 c 4.676,-5.787 13.722,-12.992 31.162,-18.421 34.264,-10.659 53.712,-14.349 58.347,0 4.635,14.348 -3.697,55.113 -38.432,66.681 -27.838,9.269 -46.458,-11.49 -53.227,-27.739 -2.366,-5.665 -1.708,-15.749 2.15,-20.521 z M 21.673,117.945 c 4.634,-14.349 24.078,-10.659 58.347,0 17.435,5.424 26.481,12.629 31.162,18.421 3.855,4.771 4.518,14.855 2.149,20.525 -6.768,16.244 -25.388,37.003 -53.226,27.739 C 25.372,173.058 17.038,132.293 21.673,117.945 Z"
         id="path6785"
         style="fill:#b7f5ff;fill-opacity:1;stroke:none;stroke-opacity:1" /></g></g><path
     id="path6905"
     d="m 326.03499,152.4116 c 2.12596,-2.22692 3.99319,-7.71711 3.39866,-7.11585 -4.27414,4.32707 -7.60356,3.57848 -8.23207,3.2787 -13.03018,-6.14456 -29.9059,-11.71184 -34.81509,5.67006 2.36117,-3.30096 3.04456,-4.7793 8.83705,-7.9809 9.69032,-5.10306 27.02077,4.50863 30.57363,11.72382 3.39867,-1.02609 7.54606,-3.95876 9.07879,-9.60312 -5.25023,3.95019 -5.75722,3.94848 -8.84097,4.02729 z"
     inkscape:connector-curvature="0"
     style="clip-rule:evenodd;fill:#3f214f;fill-opacity:1;fill-rule:evenodd;stroke-width:1.4961108" /><path
     id="path6907"
     d="m 200.6148,148.57445 c -0.62851,0.29978 -3.95661,1.04837 -8.23206,-3.2787 -0.59584,-0.60297 1.27271,4.88893 3.39867,7.11585 -3.08376,-0.0788 -3.59075,-0.0771 -8.84097,-4.02558 1.53403,5.64265 5.68142,8.57532 9.07879,9.60312 3.55155,-7.21519 20.882,-16.82687 30.57361,-11.72382 5.79251,3.20333 6.4759,4.67994 8.83706,7.9809 -4.90919,-17.38361 -21.78491,-11.81633 -34.8151,-5.67177 z"
     inkscape:connector-curvature="0"
     style="clip-rule:evenodd;fill:#3f214f;fill-opacity:1;fill-rule:evenodd;stroke-width:1.4961108" /><path
     inkscape:connector-curvature="0"
     id="path5865-3"
     d="M 127.92904,391.45215 V 366.1236 H 96.044039 v 32.10853 c 0,4.02682 14.275001,7.29105 31.885001,7.29105 v 0 -6.02904 z"
     style="fill:#3d9bd1;fill-opacity:1;stroke-width:0.47819152" /><path
     inkscape:connector-curvature="0"
     id="path5865-3-5"
     d="m 384.30918,386.46644 v -25.32855 h 32.54562 v 32.10853 c 0,4.02682 -14.57076,7.29105 -32.54562,7.29105 v 0 -6.02904 z"
     style="fill:#3d9bd1;fill-opacity:1;stroke-width:0.48311999" /><rect
     style="opacity:1;fill:#45bef9;fill-opacity:1;stroke:none;stroke-width:0.38621053;stroke-opacity:1"
     id="rect6632-1-3"
     width="20.435797"
     height="6.7177291"
     x="390.88046"
     y="354.6373" /><rect
     style="opacity:1;fill:#45bef9;fill-opacity:1;stroke:none;stroke-width:0.40766346;stroke-opacity:1"
     id="rect6632-1-3-2"
     width="20.435797"
     height="7.4847603"
     x="101.76864"
     y="358.59067" /><path
     inkscape:connector-curvature="0"
     d="m 327.59848,63.039246 c -0.6,-0.6 -1.57,-0.6 -2.17,0 l -3.13,3.12999 c -0.6,0.6 -0.6,1.57 0,2.17 l 3.13,3.13 c 0.3,0.3 0.69,0.45 1.08,0.45 0.39,0 0.78,-0.15 1.08,-0.45 l 3.13,-3.13 c 0.6,-0.6 0.6,-1.57 0,-2.17 z"
     style="fill:#2bf7d8;fill-opacity:1"
     id="path1877-8-6" /></svg>