<?xml version="1.0" encoding="UTF-8" standalone="no"?>
<svg
   xmlns:dc="http://purl.org/dc/elements/1.1/"
   xmlns:cc="http://creativecommons.org/ns#"
   xmlns:rdf="http://www.w3.org/1999/02/22-rdf-syntax-ns#"
   xmlns:svg="http://www.w3.org/2000/svg"
   xmlns="http://www.w3.org/2000/svg"
   xmlns:sodipodi="http://sodipodi.sourceforge.net/DTD/sodipodi-0.dtd"
   xmlns:inkscape="http://www.inkscape.org/namespaces/inkscape"
   id="Layer_1"
   viewBox="0 0 248.07579 58.483007"
   version="1.1"
   sodipodi:docname="robot.drone.svg"
   width="248.07579"
   height="58.483009"
   inkscape:version="0.92.2 (5c3e80d, 2017-08-06)">
  <metadata
     id="metadata15516">
    <rdf:RDF>
      <cc:Work
         rdf:about="">
        <dc:format>image/svg+xml</dc:format>
        <dc:type
           rdf:resource="http://purl.org/dc/dcmitype/StillImage" />
        <dc:title />
      </cc:Work>
    </rdf:RDF>
  </metadata>
  <defs
     id="defs15514" />
  <sodipodi:namedview
     pagecolor="#ffffff"
     bordercolor="#666666"
     borderopacity="1"
     objecttolerance="10"
     gridtolerance="10"
     guidetolerance="10"
     inkscape:pageopacity="0"
     inkscape:pageshadow="2"
     inkscape:window-width="1680"
     inkscape:window-height="958"
     id="namedview15512"
     showgrid="false"
     inkscape:snap-global="false"
     fit-margin-top="0"
     fit-margin-left="0"
     fit-margin-right="0"
     fit-margin-bottom="0"
     inkscape:zoom="1.4142136"
     inkscape:cx="-93.557144"
     inkscape:cy="-44.523999"
     inkscape:window-x="0"
     inkscape:window-y="23"
     inkscape:window-maximized="0"
     inkscape:current-layer="Layer_1" />
  <style
     id="style15365">.st0{opacity:.2}.st1{fill:#00273a}.st2{opacity:.15}.st3{fill:#fff}.st4{opacity:.3}.st5{fill:#a91f23}.st6{fill:none;stroke:#00273a;stroke-width:3;stroke-miterlimit:10}.st7{opacity:.6}</style>
  <path
     sodipodi:nodetypes="ccsccsc"
     id="XMLID_407_-2"
     class="st1"
     d="m 202.65852,44.214217 -1.58523,-0.01011 c -0.0903,1.029626 -1.42736,3.591055 -2.83966,3.285433 -1.41231,-0.305614 -2.48092,-2.197123 -2.39063,-3.226749 l -1.52094,-0.137697 c -0.18059,2.059252 1.50375,4.312229 3.78515,4.805923 2.28142,0.493694 4.37072,-2.657573 4.55131,-4.716818 z"
     inkscape:connector-curvature="0"
     style="fill:#00273a;stroke-width:1.06761348" />
  <g
     id="XMLID_1331_-0"
     transform="matrix(-0.09029265,1.0296249,1.0863875,0.23509172,122.27337,-163.69484)">
    <path
       style="fill:#a91f23"
       inkscape:connector-curvature="0"
       d="m 182.21609,87.243702 0.28348,-1.588708 c 2,0 5.30043,-0.754994 5.30043,-2.854994 0,-2.1 -1.8,-3.8 -3.8,-3.8 v -1.4 c 3,0 5.2,2.3 5.2,5.2 0,2.9 -3.98391,4.443702 -6.98391,4.443702 z"
       class="st5"
       id="XMLID_408_-4"
       sodipodi:nodetypes="ccsccsc" />
  </g>
  <g
     transform="matrix(0.10549582,1.0296249,-1.2693096,0.2350917,175.75917,-163.64714)"
     id="XMLID_1331_-0-4">
    <path
       sodipodi:nodetypes="ccsccsc"
       id="XMLID_408_-4-2"
       class="st5"
       d="m 182.21609,87.243702 0.28348,-1.588708 c 2,0 5.30043,-0.754994 5.30043,-2.854994 0,-2.1 -1.8,-3.8 -3.8,-3.8 v -1.4 c 3,0 5.2,2.3 5.2,5.2 0,2.9 -3.98391,4.443702 -6.98391,4.443702 z"
       inkscape:connector-curvature="0"
       style="fill:#a91f23" />
  </g>
  <path
     sodipodi:nodetypes="ccsccsc"
     id="XMLID_407_-2-9"
     class="st1"
     d="m 80.825883,44.261913 1.852132,-0.01011 c 0.105496,1.029633 1.667703,3.591054 3.317804,3.28544 1.650098,-0.305614 2.898645,-2.19713 2.793147,-3.226749 l 1.777032,-0.137697 c 0.210992,2.059245 -1.756939,4.312229 -4.422484,4.805916 -2.66555,0.493693 -5.106639,-2.657573 -5.317631,-4.716818 z"
     inkscape:connector-curvature="0"
     style="fill:#00273a;stroke-width:1.15399909" />
  <rect
     style="opacity:1;fill:#e74675;fill-opacity:1;stroke:none;stroke-width:1.55319428;stroke-miterlimit:4;stroke-dasharray:none;stroke-opacity:1"
     id="rect16746"
     width="126.71736"
     height="6.4972029"
     x="78.113205"
     y="38.286316" />
  <g
     id="XMLID_1211_"
     transform="matrix(0.41103981,0,0,0.33851741,83.44781,9.5232309)"
     style="fill:#51c8bb;fill-opacity:1">
    <path
       id="XMLID_368_"
       class="st3"
       d="m 281.1,52.4 c 0,0 -55.1,12.2 -55.1,-1.2 0,-13.4 55.1,1.2 55.1,1.2 z"
       inkscape:connector-curvature="0"
       style="fill:#51c8bb;fill-opacity:1" />
    <path
       id="XMLID_369_"
       class="st1"
       d="m 241.9,58.2 c -6.4,0 -11.9,-0.8 -14.6,-3 -1.3,-1.1 -2,-2.4 -2,-4 0,-1.6 0.7,-2.9 2,-3.9 9.4,-7.3 52.2,3.9 54,4.4 l 2.7,0.7 -2.7,0.6 c -1.3,0.3 -23.4,5.2 -39.4,5.2 z m -3,-12 c -5.3,0 -9,0.7 -10.8,2.2 -1,0.7 -1.4,1.7 -1.4,2.8 0,1.2 0.5,2.1 1.5,2.9 3.7,2.9 13.9,3.5 29.7,1.5 8.3,-1 16.2,-2.5 20.2,-3.3 -4.1,-1 -12,-2.8 -20.3,-4.2 -7.6,-1.2 -13.9,-1.9 -18.9,-1.9 z"
       inkscape:connector-curvature="0"
       style="fill:#51c8bb;fill-opacity:1" />
  </g>
  <g
     id="XMLID_1203_"
     transform="matrix(0.72729752,0,0,0.72191144,-1.8277575,-10.886779)"
     style="fill:#c0f3ee;fill-opacity:1">
    <path
       id="XMLID_339_"
       class="st3"
       d="m 281,52.4 c 0,0 55.1,12.2 55.1,-1.2 0,-13.4 -55.1,1.2 -55.1,1.2 z"
       inkscape:connector-curvature="0"
       style="fill:#c0f3ee;fill-opacity:1" />
    <path
       id="XMLID_365_"
       class="st1"
       d="m 320.1,58.2 c -16,0 -38,-4.8 -39.3,-5.1 l -2.7,-0.6 2.7,-0.7 c 1.8,-0.5 44.6,-11.6 54,-4.4 1.3,1 2,2.3 2,3.9 0,1.6 -0.7,2.9 -2,4 -2.7,2.1 -8.2,2.9 -14.7,2.9 z M 284,52.3 c 4.1,0.8 11.9,2.3 20.2,3.3 15.7,1.9 26,1.4 29.7,-1.5 1,-0.8 1.5,-1.7 1.5,-2.9 0,-1.1 -0.5,-2.1 -1.4,-2.8 -3.6,-2.8 -13.9,-2.9 -29.7,-0.3 -8.3,1.4 -16.2,3.2 -20.3,4.2 z"
       inkscape:connector-curvature="0"
       style="fill:#c0f3ee;fill-opacity:1" />
  </g>
  <g
     id="XMLID_1211_-5"
     transform="matrix(0.72729752,0,0,0.57335378,-123.55504,-3.0342919)"
     style="fill:#c0f3ee;fill-opacity:1">
    <path
       id="XMLID_368_-3"
       class="st3"
       d="m 281.1,52.4 c 0,0 -55.1,12.2 -55.1,-1.2 0,-13.4 55.1,1.2 55.1,1.2 z"
       inkscape:connector-curvature="0"
       style="fill:#c0f3ee;fill-opacity:1" />
    <path
       id="XMLID_369_-5"
       class="st1"
       d="m 241.9,58.2 c -6.4,0 -11.9,-0.8 -14.6,-3 -1.3,-1.1 -2,-2.4 -2,-4 0,-1.6 0.7,-2.9 2,-3.9 9.4,-7.3 52.2,3.9 54,4.4 l 2.7,0.7 -2.7,0.6 c -1.3,0.3 -23.4,5.2 -39.4,5.2 z m -3,-12 c -5.3,0 -9,0.7 -10.8,2.2 -1,0.7 -1.4,1.7 -1.4,2.8 0,1.2 0.5,2.1 1.5,2.9 3.7,2.9 13.9,3.5 29.7,1.5 8.3,-1 16.2,-2.5 20.2,-3.3 -4.1,-1 -12,-2.8 -20.3,-4.2 -7.6,-1.2 -13.9,-1.9 -18.9,-1.9 z"
       inkscape:connector-curvature="0"
       style="fill:#c0f3ee;fill-opacity:1" />
  </g>
  <g
     id="XMLID_1203_-9"
     transform="matrix(0.44375613,0,0,0.32966609,-42.240472,9.827108)"
     style="fill:#51c8bb;fill-opacity:1">
    <path
       id="XMLID_339_-8"
       class="st3"
       d="m 281,52.4 c 0,0 55.1,12.2 55.1,-1.2 0,-13.4 -55.1,1.2 -55.1,1.2 z"
       inkscape:connector-curvature="0"
       style="fill:#51c8bb;fill-opacity:1" />
    <path
       id="XMLID_365_-9"
       class="st1"
       d="m 320.1,58.2 c -16,0 -38,-4.8 -39.3,-5.1 l -2.7,-0.6 2.7,-0.7 c 1.8,-0.5 44.6,-11.6 54,-4.4 1.3,1 2,2.3 2,3.9 0,1.6 -0.7,2.9 -2,4 -2.7,2.1 -8.2,2.9 -14.7,2.9 z M 284,52.3 c 4.1,0.8 11.9,2.3 20.2,3.3 15.7,1.9 26,1.4 29.7,-1.5 1,-0.8 1.5,-1.7 1.5,-2.9 0,-1.1 -0.5,-2.1 -1.4,-2.8 -3.6,-2.8 -13.9,-2.9 -29.7,-0.3 -8.3,1.4 -16.2,3.2 -20.3,4.2 z"
       inkscape:connector-curvature="0"
       style="fill:#51c8bb;fill-opacity:1" />
  </g>
  <path
     style="fill:#d8607d;fill-opacity:1;stroke:none;stroke-width:0.8516975px;stroke-linecap:butt;stroke-linejoin:miter;stroke-opacity:1"
     d="m 119.2545,30.393735 -3.26127,-1.786659 -1.12877,-0.981937 -0.77096,-1.247549 -0.53032,-1.757104 0.0618,-1.604296 0.39332,-1.658217 0.55561,-1.182223 0.6696,-0.840984 1.34925,-1.328764 1.5767,-0.57841 2.66451,-0.392287 1.45492,-0.22559 -0.90285,1.180282 -0.46036,1.005182 -0.87931,2.074124 -0.5583,2.340278 -0.38325,2.822291 -0.12974,2.249057 z"
     id="path15810"
     inkscape:connector-curvature="0"
     sodipodi:nodetypes="cccccccccccccccccccc" />
  <path
     style="fill:#d8607d;fill-opacity:1;stroke:none;stroke-width:0.72293454px;stroke-linecap:butt;stroke-linejoin:miter;stroke-opacity:1"
     d="m 165.19322,27.857523 1.27807,-1.44879 0.72415,-1.946815 0.0127,-1.605098 -0.22383,-1.67108 -0.35768,-1.201449 -0.45193,-0.864669 -0.92372,-1.376844 -1.09397,-0.720525 -1.53858,-0.499909 -1.38762,-0.179857 0.29909,0.39246 0.92693,1.266521 0.86463,1.316463 0.64862,1.509163 0.4927,1.279689 0.44693,1.519985 0.27715,1.967764 z"
     id="path15810-5"
     inkscape:connector-curvature="0"
     sodipodi:nodetypes="ccccccccccccccccccc" />
  <path
     style="opacity:1;fill:#f398a0;fill-opacity:1;stroke:none;stroke-width:1.73005009;stroke-miterlimit:4;stroke-dasharray:none;stroke-opacity:1"
     d="M 141.94741,8.4852811 A 23.27352,17.458026 0 0 0 118.67389,25.943309 23.27352,17.458026 0 0 0 141.94741,43.401337 23.27352,17.458026 0 0 0 165.22093,25.943309 23.27352,17.458026 0 0 0 141.94741,8.4852811 Z"
     id="path16721"
     inkscape:connector-curvature="0" />
  <path
     style="opacity:1;fill:#4482a1;fill-opacity:1;stroke:none;stroke-width:0.02762136;stroke-miterlimit:4;stroke-dasharray:none;stroke-opacity:1"
     d=""
     id="path16556"
     inkscape:connector-curvature="0" />
  <path
     style="opacity:1;fill:#4482a1;fill-opacity:1;stroke:none;stroke-width:0.02762136;stroke-miterlimit:4;stroke-dasharray:none;stroke-opacity:1"
     d=""
     id="path16558"
     inkscape:connector-curvature="0" />
  <path
     style="opacity:1;fill:#4482a1;fill-opacity:1;stroke:none;stroke-width:0.02762136;stroke-miterlimit:4;stroke-dasharray:none;stroke-opacity:1"
     d=""
     id="path16560"
     inkscape:connector-curvature="0" />
  <path
     style="opacity:1;fill:#4482a1;fill-opacity:1;stroke:none;stroke-width:0.05524272;stroke-miterlimit:4;stroke-dasharray:none;stroke-opacity:1"
     d=""
     id="path16572"
     inkscape:connector-curvature="0" />
  <rect
     style="opacity:0.98999999;fill:#fcf279;fill-opacity:0.99215896;stroke:#d8f1e9;stroke-width:0;stroke-linecap:round;stroke-linejoin:round;stroke-miterlimit:4;stroke-dasharray:none;stroke-dashoffset:0;stroke-opacity:1"
     id="rect3951-7"
     width="9.9420996"
     height="33.414501"
     x="31.160015"
     y="-99.532921"
     ry="4.7157555"
     transform="matrix(0.01485011,0.99988973,-0.9998381,0.01799382,0,0)" />
  <rect
     style="opacity:0.98999999;fill:#fdf379;fill-opacity:0.98431373;stroke:#d8f1e9;stroke-width:0;stroke-linecap:round;stroke-linejoin:round;stroke-miterlimit:4;stroke-dasharray:none;stroke-dashoffset:0;stroke-opacity:1"
     id="rect3951-7-4"
     width="9.939352"
     height="34.868855"
     x="33.16547"
     y="-215.70381"
     ry="4.9210081"
     transform="matrix(0.01536649,0.99988193,-0.99985398,0.01708884,0,0)" />
  <path
     style="fill:#ffffff;fill-opacity:0.60821922;stroke-width:1.04253626"
     d="m 133.94203,24.137138 c -1.99058,-0.446503 -3.99184,0.732942 -4.45563,2.639221 -0.46593,1.900165 0.77512,3.805419 2.76892,4.250903 1.98312,0.444467 3.97583,-0.738046 4.44177,-2.636175 0.46593,-1.90729 -0.77193,-3.812551 -2.75506,-4.253949 z"
     id="path193-0-8"
     inkscape:connector-curvature="0" />
  <path
     inkscape:connector-curvature="0"
     id="path2751-1-4"
     d="m 154.26408,21.875562 c -0.0691,0.294663 0.12068,0.588019 0.42375,0.655164 0.30308,0.06721 0.60482,-0.117311 0.67389,-0.411959 0.43681,-1.86347 -0.76719,-3.724998 -2.68391,-4.14967 -1.91673,-0.424664 -3.83145,0.745872 -4.26826,2.609335 -0.0691,0.294648 0.12066,0.588011 0.42375,0.655163 0.30306,0.06721 0.60482,-0.11731 0.67388,-0.411973 0.29889,-1.275083 1.60903,-2.076022 2.92057,-1.785424 1.31152,0.290584 2.13521,1.564339 1.83633,2.839364 z"
     style="fill:#000000;fill-opacity:1;stroke-width:0.06065718" />
  <path
     inkscape:connector-curvature="0"
     id="path2751-1-8-0"
     d="m 141.77764,25.672477 c 0.009,-0.473263 0.0977,-0.920516 -0.24278,-0.904411 -0.34046,0.0161 -0.69298,0.250915 -0.70199,0.724164 -0.0569,2.992951 1.64833,5.344982 3.80132,5.243092 2.153,-0.101891 4.02012,-2.457719 4.07706,-5.450663 0.009,-0.473256 -0.25973,-0.843907 -0.60016,-0.827801 -0.34045,0.0161 -0.26709,0.391694 -0.27609,0.864951 0.45688,2.295267 -1.63857,4.789247 -3.11177,4.858969 -1.4732,0.06974 -3.34477,-2.162233 -2.94559,-4.508301 z"
     style="fill:#000000;fill-opacity:1;stroke-width:0.07940046"
     sodipodi:nodetypes="cccsccccc" />
  <path
     style="fill:#ffffff;fill-opacity:0.60821922;stroke-width:1.04253626"
     d="m 156.38058,24.154962 c -1.99059,-0.446495 -3.99184,0.732956 -4.45563,2.639236 -0.46593,1.900164 0.77512,3.805419 2.76891,4.250903 1.98313,0.444459 3.97584,-0.738046 4.44178,-2.636175 0.46593,-1.90729 -0.77193,-3.812559 -2.75506,-4.253964 z"
     id="path193-0-9-8"
     inkscape:connector-curvature="0" />
  <path
     inkscape:connector-curvature="0"
     id="path2751-1-0-9"
     d="m 133.94203,21.982773 c 0.0706,0.294648 -0.12322,0.588012 -0.43273,0.655157 -0.30951,0.06721 -0.61765,-0.117311 -0.68818,-0.411959 -0.44608,-1.86347 0.78347,-3.724998 2.74083,-4.14967 1.95737,-0.424664 3.91271,0.745865 4.35878,2.609327 0.0706,0.294663 -0.1232,0.588019 -0.43273,0.655178 -0.30949,0.06714 -0.61765,-0.117325 -0.68817,-0.41198 -0.30524,-1.275083 -1.64316,-2.076022 -2.9825,-1.785431 -1.33935,0.290591 -2.1805,1.564353 -1.8753,2.839378 z"
     style="fill:#000000;fill-opacity:1;stroke-width:0.06129702" />
  <path
     style="fill:#c9456b;fill-opacity:1;stroke:none;stroke-width:0.72459948px;stroke-linecap:butt;stroke-linejoin:miter;stroke-opacity:1"
     d="m 124.50329,38.270352 -2.07654,0.04238 1.54667,1.001695 2.25008,1.646861 1.90915,1.240785 3.04556,1.308464 2.61373,0.586554 2.45462,0.270716 4.09106,0.270717 4.15923,0.04512 3.17792,-0.328874 2.84502,-0.550956 3.27284,-1.082867 3.2501,-1.556622 2.04553,-1.443823 1.52278,-1.308464 0.10533,-0.112799 -2.33221,3.6e-5 -1.04597,0.744472 -2.65917,1.556621 -3.06829,1.240785 -3.09101,0.90239 -2.04553,0.338396 -2.70464,0.270716 -3.86377,-0.02252 -3.29557,-0.383516 -3.11374,-0.744471 -2.00007,-0.631672 -2.63645,-1.150547 -2.34099,-1.376143 -1.07637,-0.77978 z"
     id="path16773"
     inkscape:connector-curvature="0"
     sodipodi:nodetypes="cccccccccccccccccccccccccccccccc" />
  <ellipse
     style="opacity:1;fill:#e5a5b3;fill-opacity:1;stroke:none;stroke-width:1.81149864;stroke-miterlimit:4;stroke-dasharray:none;stroke-opacity:1"
     id="path16777"
     cx="81.819145"
     cy="27.26545"
     rx="2.0000682"
     ry="1.7145396" />
  <ellipse
     style="opacity:1;fill:#e5a5b3;fill-opacity:1;stroke:none;stroke-width:1.81149864;stroke-miterlimit:4;stroke-dasharray:none;stroke-opacity:1"
     id="path16777-8"
     cx="200.72733"
     cy="27.311884"
     rx="2.0000682"
     ry="1.7145396" />
</svg>
