<?xml version="1.0" encoding="UTF-8" standalone="no"?>
<!-- Generator: Adobe Illustrator 19.0.0, SVG Export Plug-In . SVG Version: 6.00 Build 0)  -->

<svg
   xmlns:dc="http://purl.org/dc/elements/1.1/"
   xmlns:cc="http://creativecommons.org/ns#"
   xmlns:rdf="http://www.w3.org/1999/02/22-rdf-syntax-ns#"
   xmlns:svg="http://www.w3.org/2000/svg"
   xmlns="http://www.w3.org/2000/svg"
   xmlns:sodipodi="http://sodipodi.sourceforge.net/DTD/sodipodi-0.dtd"
   xmlns:inkscape="http://www.inkscape.org/namespaces/inkscape"
   version="1.1"
   id="Layer_1"
   x="0px"
   y="0px"
   viewBox="0 0 328.99261 482.26733"
   xml:space="preserve"
   sodipodi:docname="robot.teacher.svg"
   inkscape:version="0.92.2 (5c3e80d, 2017-08-06)"
   width="328.99261"
   height="482.26733"><metadata
     id="metadata5924"><rdf:RDF><cc:Work
         rdf:about=""><dc:format>image/svg+xml</dc:format><dc:type
           rdf:resource="http://purl.org/dc/dcmitype/StillImage" /><dc:title></dc:title></cc:Work></rdf:RDF></metadata><defs
     id="defs5922"><inkscape:path-effect
       effect="spiro"
       id="path-effect4105-2"
       is_visible="true" /><inkscape:path-effect
       effect="spiro"
       id="path-effect4059-3"
       is_visible="true" /><inkscape:path-effect
       effect="spiro"
       id="path-effect4047-3"
       is_visible="true" /><inkscape:path-effect
       effect="spiro"
       id="path-effect4105"
       is_visible="true" /><inkscape:path-effect
       effect="spiro"
       id="path-effect4083"
       is_visible="true" /><inkscape:path-effect
       effect="spiro"
       id="path-effect4059"
       is_visible="true" /><inkscape:path-effect
       effect="spiro"
       id="path-effect4047"
       is_visible="true" /></defs><sodipodi:namedview
     pagecolor="#ffffff"
     bordercolor="#666666"
     borderopacity="1"
     objecttolerance="10"
     gridtolerance="10"
     guidetolerance="10"
     inkscape:pageopacity="0"
     inkscape:pageshadow="2"
     inkscape:window-width="1680"
     inkscape:window-height="958"
     id="namedview5920"
     showgrid="false"
     inkscape:snap-nodes="false"
     inkscape:zoom="0.92"
     inkscape:cx="-55.401797"
     inkscape:cy="276.20521"
     inkscape:window-x="21"
     inkscape:window-y="23"
     inkscape:window-maximized="0"
     inkscape:current-layer="Layer_1"
     fit-margin-top="0"
     fit-margin-left="0"
     fit-margin-right="0"
     fit-margin-bottom="0" /><ellipse
     style="opacity:1;fill:#f4f4f4;fill-opacity:1;stroke:none;stroke-width:1.96344674;stroke-miterlimit:4;stroke-dasharray:none;stroke-opacity:1"
     id="path17763"
     cx="197.67256"
     cy="406.55136"
     rx="121.58562"
     ry="38.759426" /><rect
     x="149.99728"
     y="179.59509"
     style="fill:#007fa1;fill-opacity:1;stroke-width:0.78537869"
     width="95.274475"
     height="28.902504"
     id="rect5835" /><path
     style="fill:#57c8df;fill-opacity:1;stroke-width:0.78537869"
     d="M 277.89569,73.566064 V 187.17594 H 245.27102 149.99729 117.37263 V 73.566064 c 0,-13.276277 9.61645,-24.041383 21.47611,-24.041383 h 58.78987 58.7817 c 11.86709,8.31e-4 21.47538,10.765937 21.47538,24.041383 z"
     id="path5837"
     inkscape:connector-curvature="0" /><path
     style="fill:#28bee5;fill-opacity:1;stroke-width:0.78537869"
     d="M 153.2389,49.525512 H 138.848 c -11.85967,0 -21.47611,10.765106 -21.47611,24.041382 V 187.17678 h 14.39089 V 73.566064 c 7.5e-4,-13.275446 9.61719,-24.040552 21.47612,-24.040552 z"
     id="path5839"
     inkscape:connector-curvature="0" /><g
     id="g5845"
     transform="matrix(0.7422963,0,0,0.83096151,7.6063023,6.2191213)"><rect
       x="171.606"
       y="363.784"
       style="fill:#45bef9;fill-opacity:1"
       width="33.412998"
       height="121.303"
       id="rect5841" /><rect
       x="306.992"
       y="363.784"
       style="fill:#45bef9;fill-opacity:1"
       width="33.402"
       height="121.303"
       id="rect5843" /></g><path
     style="fill:#3d9bd1;fill-opacity:1;stroke-width:0.78537869"
     d="m 235.48533,309.45692 v 34.98597 h 24.79418 V 309.45692 Z M 134.9888,344.44289 h 24.80235 V 309.45692 H 134.9888 Z"
     id="path5847"
     inkscape:connector-curvature="0" /><polygon
     id="polygon5859"
     points="152.265,512 152.265,471.562 171.606,471.562 205.019,471.562 224.36,471.562 224.36,512 "
     style="fill:#28e2f9;fill-opacity:1"
     transform="matrix(0.7422963,0,0,0.83096151,7.6063023,6.2191213)" /><polygon
     id="polygon5861"
     points="287.651,512 287.651,471.562 306.992,471.562 340.394,471.562 359.735,471.562 359.735,512 "
     style="fill:#28e2f9;fill-opacity:1"
     transform="matrix(0.7422963,0,0,0.83096151,7.6063023,6.2191213)" /><path
     inkscape:connector-curvature="0"
     id="path5863"
     d="m 316.58937,221.76297 v 79.28192 h -23.66812 v -62.54088 -19.85775 -14.88682 0 c 13.07184,0 23.66812,8.06055 23.66812,18.00353 z"
     style="fill:#3d9bd1;fill-opacity:1;stroke-width:0.64739215" /><path
     inkscape:connector-curvature="0"
     id="path5865"
     d="m 102.91643,239.64232 v 64.58944 H 79.24831 v -81.87883 c 0,-10.26867 10.596278,-18.59266 23.66812,-18.59266 v 0 15.37445 z"
     style="fill:#3d9bd1;fill-opacity:1;stroke-width:0.65790951" /><path
     style="fill:#2bf7d8;fill-opacity:1;stroke-width:0.78537869"
     d="m 277.89569,254.89349 v 64.85489 h -17.61544 v -0.009 h -24.79418 v 0.009 h -75.69492 v -0.009 H 134.9888 v 0.009 h -17.61543 v -64.85489 -29.22492 -21.90913 h 32.62466 95.27448 32.62466 v 21.90913 z"
     id="path5869"
     inkscape:connector-curvature="0" /><rect
     x="117.37263"
     y="203.75946"
     style="fill:#4eefcd;fill-opacity:1;stroke-width:0.78537869"
     width="28.239178"
     height="115.97897"
     id="rect5871" /><g
     id="g5889"
     transform="translate(-87.862198,-51.37894)" /><g
     id="g5891"
     transform="translate(-87.862198,-51.37894)" /><g
     id="g5893"
     transform="translate(-87.862198,-51.37894)" /><g
     id="g5895"
     transform="translate(-87.862198,-51.37894)" /><g
     id="g5897"
     transform="translate(-87.862198,-51.37894)" /><g
     id="g5899"
     transform="translate(-87.862198,-51.37894)" /><g
     id="g5901"
     transform="translate(-87.862198,-51.37894)" /><g
     id="g5903"
     transform="translate(-87.862198,-51.37894)" /><g
     id="g5905"
     transform="translate(-87.862198,-51.37894)" /><g
     id="g5907"
     transform="translate(-87.862198,-51.37894)" /><g
     id="g5909"
     transform="translate(-87.862198,-51.37894)" /><g
     id="g5911"
     transform="translate(-87.862198,-51.37894)" /><g
     id="g5913"
     transform="translate(-87.862198,-51.37894)" /><g
     id="g5915"
     transform="translate(-87.862198,-51.37894)" /><g
     id="g5917"
     transform="translate(-87.862198,-51.37894)" /><path
     style="fill:#c1b9e3;fill-opacity:1;stroke:none;stroke-width:0.78537869px;stroke-linecap:butt;stroke-linejoin:miter;stroke-opacity:1"
     d="m 118.32168,66.161029 26.1691,15.774185 h 104.27376 l 26.71403,-19.698401 -2.71287,-4.503919 -3.72474,-4.230683 -7.02248,-3.471982 -6.87266,-0.727207 -27.3705,-0.15244 -29.44225,-0.05584 -34.72075,0.306143 -20.21475,-0.487841 -9.08234,0.935488 -3.82759,1.296865 -4.92687,3.337424 -2.26788,2.225614 -2.09689,2.999057 -1.75338,3.139123 z"
     id="path6087"
     inkscape:connector-curvature="0"
     sodipodi:nodetypes="ccccccccccccccccccc" /><rect
     style="opacity:1;fill:#6cb3ef;fill-opacity:1;stroke:none;stroke-width:0.79630893;stroke-opacity:1"
     id="rect6632"
     width="14.766816"
     height="39.522305"
     x="102.34707"
     y="215.37119" /><rect
     style="opacity:1;fill:#45bef9;fill-opacity:1;stroke:none;stroke-width:0.80709124;stroke-opacity:1"
     id="rect6632-1"
     width="15.169416"
     height="39.522305"
     x="277.89569"
     y="215.3712" /><path
     style="fill:#a395db;fill-opacity:1;stroke:none;stroke-width:0.78537869px;stroke-linecap:butt;stroke-linejoin:miter;stroke-opacity:1"
     d="m 131.75851,74.217124 0.30195,-5.29562 0.50325,-4.450568 0.70455,-3.492855 1.00651,-2.4788 1.10715,-1.521083 1.61041,-1.352074 1.6104,-0.845047 3.82471,-1.577422 5.53577,-1.971772 4.12667,-1.183065 2.66723,-0.507028 0.25162,-0.169009 0.45293,-0.11267 -10.92056,-0.28168 h -1.8117 l -6.69325,0.676038 -2.01301,0.338018 -2.66724,0.845046 -0.85524,0.394998 -0.71797,0.328712 -1.19467,0.656526 -1.25813,0.985886 -2.06333,1.577422 -2.01301,2.028111 -1.81171,2.647809 -1.8117,3.211168 -0.90585,2.08445 -0.45293,1.521084 z"
     id="path6658"
     inkscape:connector-curvature="0"
     sodipodi:nodetypes="cccccccccccccccccccccccccccccc" /><g
     transform="matrix(0.49709539,0,0,0.61818688,129.34071,39.92125)"
     id="g6789"
     style="fill:#b7f5ff;fill-opacity:1;stroke:none;stroke-opacity:1"><g
       id="g6787"
       style="fill:#b7f5ff;fill-opacity:1;stroke:none;stroke-opacity:1"><path
         inkscape:connector-curvature="0"
         d="m 62.883,208.243 c 47.701,3.236 67.61,-56.504 67.61,-56.504 0,0 1.852,-8.331 12.964,-8.331 h 1.02 c 11.11,0 12.963,8.331 12.963,8.331 0,0 19.91,59.74 67.61,56.504 56.545,-3.832 78.718,-120.862 50.933,-127.809 -27.781,-6.946 -93.999,29.632 -108.357,37.966 -14.359,8.337 -23.149,7.878 -23.149,7.878 h -1.02 c 0,0 -8.79,0.458 -23.149,-7.878 C 105.949,110.066 39.731,73.488 11.948,80.434 -15.838,87.381 6.343,204.417 62.883,208.243 Z m 113.872,-71.877 c 4.676,-5.787 13.722,-12.992 31.162,-18.421 34.264,-10.659 53.712,-14.349 58.347,0 4.635,14.348 -3.697,55.113 -38.432,66.681 -27.838,9.269 -46.458,-11.49 -53.227,-27.739 -2.366,-5.665 -1.708,-15.749 2.15,-20.521 z M 21.673,117.945 c 4.634,-14.349 24.078,-10.659 58.347,0 17.435,5.424 26.481,12.629 31.162,18.421 3.855,4.771 4.518,14.855 2.149,20.525 -6.768,16.244 -25.388,37.003 -53.226,27.739 C 25.372,173.058 17.038,132.293 21.673,117.945 Z"
         id="path6785"
         style="fill:#b7f5ff;fill-opacity:1;stroke:none;stroke-opacity:1" /></g></g><path
     id="path6905"
     d="m 249.62087,132.86729 c 1.57809,-1.85048 2.96413,-6.41262 2.52281,-5.913 -3.17267,3.59563 -5.64409,2.97358 -6.11063,2.72448 -9.67226,-5.1059 -22.19904,-9.73209 -25.84311,4.7116 1.75268,-2.74297 2.25996,-3.97142 6.55971,-6.63182 7.19308,-4.24045 20.05741,3.7465 22.69469,9.74204 2.52282,-0.85264 5.60141,-3.28958 6.73915,-7.97982 -3.89723,3.28245 -4.27356,3.28103 -6.56262,3.34652 z"
     inkscape:connector-curvature="0"
     style="clip-rule:evenodd;fill:#3f214f;fill-opacity:1;fill-rule:evenodd;stroke-width:1.17501354" /><path
     id="path6907"
     d="m 156.52193,129.67877 c -0.46654,0.2491 -2.93698,0.87115 -6.11063,-2.72448 -0.44229,-0.50104 0.94473,4.06252 2.52282,5.913 -2.28906,-0.0655 -2.6654,-0.0641 -6.56262,-3.3451 1.1387,4.68882 4.2173,7.12576 6.73915,7.97982 2.6363,-5.99554 15.50063,-13.98248 22.69468,-9.74204 4.29976,2.66184 4.80704,3.88885 6.55972,6.63182 -3.64408,-14.44511 -16.17086,-9.81892 -25.84312,-4.71302 z"
     inkscape:connector-curvature="0"
     style="clip-rule:evenodd;fill:#3f214f;fill-opacity:1;fill-rule:evenodd;stroke-width:1.17501354" /><path
     inkscape:connector-curvature="0"
     id="path5865-3"
     d="M 102.56756,331.50079 V 310.45374 H 78.899437 v 26.68095 c 0,3.34613 10.596281,6.05858 23.668123,6.05858 v 0 -5.0099 z"
     style="fill:#3d9bd1;fill-opacity:1;stroke-width:0.37556142" /><path
     inkscape:connector-curvature="0"
     id="path5865-3-5"
     d="m 292.87759,327.35786 v -21.04705 h 24.15849 v 26.68095 c 0,3.34613 -10.81582,6.05858 -24.15849,6.05858 v 0 -5.0099 z"
     style="fill:#3d9bd1;fill-opacity:1;stroke-width:0.37943214" /><rect
     style="opacity:1;fill:#45bef9;fill-opacity:1;stroke:none;stroke-width:0.30332151;stroke-opacity:1"
     id="rect6632-1-3"
     width="15.169416"
     height="5.5821743"
     x="297.75543"
     y="300.90906" /><rect
     style="opacity:1;fill:#45bef9;fill-opacity:1;stroke:none;stroke-width:0.32017019;stroke-opacity:1"
     id="rect6632-1-3-2"
     width="15.169416"
     height="6.2195477"
     x="83.148788"
     y="304.19415" /><path
     inkscape:connector-curvature="0"
     d="m 250.78144,58.602312 c -0.44537,-0.498577 -1.1654,-0.498577 -1.61078,0 l -2.32339,2.600901 c -0.44537,0.498577 -0.44537,1.30461 0,1.803187 l 2.32339,2.600909 c 0.22269,0.249289 0.51218,0.373933 0.80168,0.373933 0.2895,0 0.57899,-0.124644 0.80168,-0.373933 l 2.32339,-2.600909 c 0.44538,-0.498577 0.44538,-1.30461 0,-1.803187 z"
     style="fill:#2bf7d8;fill-opacity:1;stroke-width:0.78537869"
     id="path1877-8-6" /></svg>