<?xml version="1.0" encoding="UTF-8" standalone="no"?>
<svg
   xmlns:dc="http://purl.org/dc/elements/1.1/"
   xmlns:cc="http://creativecommons.org/ns#"
   xmlns:rdf="http://www.w3.org/1999/02/22-rdf-syntax-ns#"
   xmlns:svg="http://www.w3.org/2000/svg"
   xmlns="http://www.w3.org/2000/svg"
   xmlns:sodipodi="http://sodipodi.sourceforge.net/DTD/sodipodi-0.dtd"
   xmlns:inkscape="http://www.inkscape.org/namespaces/inkscape"
   id="Layer_1"
   viewBox="0 0 248.07579 58.483007"
   version="1.1"
   sodipodi:docname="robot.drone.svg"
   width="248.07579"
   height="58.483009"
   inkscape:version="0.92.2 (5c3e80d, 2017-08-06)">
  <metadata
     id="metadata15516">
    <rdf:RDF>
      <cc:Work
         rdf:about="">
        <dc:format>image/svg+xml</dc:format>
        <dc:type
           rdf:resource="http://purl.org/dc/dcmitype/StillImage" />
        <dc:title></dc:title>
      </cc:Work>
    </rdf:RDF>
  </metadata>
  <defs
     id="defs15514" />
  <sodipodi:namedview
     pagecolor="#ffffff"
     bordercolor="#666666"
     borderopacity="1"
     objecttolerance="10"
     gridtolerance="10"
     guidetolerance="10"
     inkscape:pageopacity="0"
     inkscape:pageshadow="2"
     inkscape:window-width="1680"
     inkscape:window-height="958"
     id="namedview15512"
     showgrid="false"
     inkscape:snap-global="false"
     fit-margin-top="0"
     fit-margin-left="0"
     fit-margin-right="0"
     fit-margin-bottom="0"
     inkscape:zoom="1.4142136"
     inkscape:cx="-93.557144"
     inkscape:cy="-44.523999"
     inkscape:window-x="0"
     inkscape:window-y="23"
     inkscape:window-maximized="0"
     inkscape:current-layer="Layer_1" />
  <style
     id="style15365">.st0{opacity:.2}.st1{fill:#00273a}.st2{opacity:.15}.st3{fill:#fff}.st4{opacity:.3}.st5{fill:#a91f23}.st6{fill:none;stroke:#00273a;stroke-width:3;stroke-miterlimit:10}.st7{opacity:.6}</style>
  <path
     sodipodi:nodetypes="ccsccsc"
     id="XMLID_407_-2"
     class="st1"
     d="m 198.57886,49.492131 -1.93893,-0.014 c -0.11044,1.42625 -1.74584,4.97437 -3.47327,4.55102 -1.72743,-0.42334 -3.03448,-3.04348 -2.92404,-4.46973 l -1.86031,-0.19074 c -0.22088,2.8525 1.83928,5.97335 4.62973,6.65722 2.79046,0.68387 5.34594,-3.6813 5.56682,-6.53379 z"
     inkscape:connector-curvature="0"
     style="fill:#00273a;stroke-width:1.38965786" />
  <g
     id="XMLID_1331_-0"
     transform="matrix(-0.11043938,1.4262482,1.3287899,0.32565174,100.25762,-238.50588)">
    <path
       style="fill:#a91f23"
       inkscape:connector-curvature="0"
       d="m 182.21609,87.243702 0.28348,-1.588708 c 2,0 5.30043,-0.754994 5.30043,-2.854994 0,-2.1 -1.8,-3.8 -3.8,-3.8 v -1.4 c 3,0 5.2,2.3 5.2,5.2 0,2.9 -3.98391,4.443702 -6.98391,4.443702 z"
       class="st5"
       id="XMLID_408_-4"
       sodipodi:nodetypes="ccsccsc" />
  </g>
  <g
     transform="matrix(0.12903478,1.4262482,-1.5525269,0.32565172,165.67754,-238.4398)"
     id="XMLID_1331_-0-4">
    <path
       sodipodi:nodetypes="ccsccsc"
       id="XMLID_408_-4-2"
       class="st5"
       d="m 182.21609,87.243702 0.28348,-1.588708 c 2,0 5.30043,-0.754994 5.30043,-2.854994 0,-2.1 -1.8,-3.8 -3.8,-3.8 v -1.4 c 3,0 5.2,2.3 5.2,5.2 0,2.9 -3.98391,4.443702 -6.98391,4.443702 z"
       inkscape:connector-curvature="0"
       style="fill:#a91f23" />
  </g>
  <path
     sodipodi:nodetypes="ccsccsc"
     id="XMLID_407_-2-9"
     class="st1"
     d="m 49.562082,49.558201 2.265393,-0.014 c 0.129035,1.42626 2.039812,4.97437 4.058096,4.55103 2.018279,-0.42334 3.54541,-3.04349 3.416373,-4.46973 l 2.173536,-0.19074 c 0.25807,2.85249 -2.14896,5.97335 -5.40926,6.65721 -3.260306,0.68387 -6.246068,-3.6813 -6.504138,-6.53379 z"
     inkscape:connector-curvature="0"
     style="fill:#00273a;stroke-width:1.50210154" />
  <rect
     style="opacity:1;fill:#e74675;fill-opacity:1;stroke:none;stroke-width:2.0217135;stroke-miterlimit:4;stroke-dasharray:none;stroke-opacity:1"
     id="rect16746"
     width="154.99142"
     height="9"
     x="46.244129"
     y="41.280731" />
  <g
     id="XMLID_1211_"
     transform="matrix(0.50275389,0,0,0.46891819,52.769032,1.43778)"
     style="fill:#51c8bb;fill-opacity:1">
    <path
       id="XMLID_368_"
       class="st3"
       d="m 281.1,52.4 c 0,0 -55.1,12.2 -55.1,-1.2 0,-13.4 55.1,1.2 55.1,1.2 z"
       inkscape:connector-curvature="0"
       style="fill:#51c8bb;fill-opacity:1" />
    <path
       id="XMLID_369_"
       class="st1"
       d="m 241.9,58.2 c -6.4,0 -11.9,-0.8 -14.6,-3 -1.3,-1.1 -2,-2.4 -2,-4 0,-1.6 0.7,-2.9 2,-3.9 9.4,-7.3 52.2,3.9 54,4.4 l 2.7,0.7 -2.7,0.6 c -1.3,0.3 -23.4,5.2 -39.4,5.2 z m -3,-12 c -5.3,0 -9,0.7 -10.8,2.2 -1,0.7 -1.4,1.7 -1.4,2.8 0,1.2 0.5,2.1 1.5,2.9 3.7,2.9 13.9,3.5 29.7,1.5 8.3,-1 16.2,-2.5 20.2,-3.3 -4.1,-1 -12,-2.8 -20.3,-4.2 -7.6,-1.2 -13.9,-1.9 -18.9,-1.9 z"
       inkscape:connector-curvature="0"
       style="fill:#51c8bb;fill-opacity:1" />
  </g>
  <g
     id="XMLID_1203_"
     transform="matrix(0.88957723,0,0,1,-51.533818,-26.834399)"
     style="fill:#c0f3ee;fill-opacity:1">
    <path
       id="XMLID_339_"
       class="st3"
       d="m 281,52.4 c 0,0 55.1,12.2 55.1,-1.2 0,-13.4 -55.1,1.2 -55.1,1.2 z"
       inkscape:connector-curvature="0"
       style="fill:#c0f3ee;fill-opacity:1" />
    <path
       id="XMLID_365_"
       class="st1"
       d="m 320.1,58.2 c -16,0 -38,-4.8 -39.3,-5.1 l -2.7,-0.6 2.7,-0.7 c 1.8,-0.5 44.6,-11.6 54,-4.4 1.3,1 2,2.3 2,3.9 0,1.6 -0.7,2.9 -2,4 -2.7,2.1 -8.2,2.9 -14.7,2.9 z M 284,52.3 c 4.1,0.8 11.9,2.3 20.2,3.3 15.7,1.9 26,1.4 29.7,-1.5 1,-0.8 1.5,-1.7 1.5,-2.9 0,-1.1 -0.5,-2.1 -1.4,-2.8 -3.6,-2.8 -13.9,-2.9 -29.7,-0.3 -8.3,1.4 -16.2,3.2 -20.3,4.2 z"
       inkscape:connector-curvature="0"
       style="fill:#c0f3ee;fill-opacity:1" />
  </g>
  <g
     id="XMLID_1211_-5"
     transform="matrix(0.88957723,0,0,0.79421622,-200.42175,-15.957044)"
     style="fill:#c0f3ee;fill-opacity:1">
    <path
       id="XMLID_368_-3"
       class="st3"
       d="m 281.1,52.4 c 0,0 -55.1,12.2 -55.1,-1.2 0,-13.4 55.1,1.2 55.1,1.2 z"
       inkscape:connector-curvature="0"
       style="fill:#c0f3ee;fill-opacity:1" />
    <path
       id="XMLID_369_-5"
       class="st1"
       d="m 241.9,58.2 c -6.4,0 -11.9,-0.8 -14.6,-3 -1.3,-1.1 -2,-2.4 -2,-4 0,-1.6 0.7,-2.9 2,-3.9 9.4,-7.3 52.2,3.9 54,4.4 l 2.7,0.7 -2.7,0.6 c -1.3,0.3 -23.4,5.2 -39.4,5.2 z m -3,-12 c -5.3,0 -9,0.7 -10.8,2.2 -1,0.7 -1.4,1.7 -1.4,2.8 0,1.2 0.5,2.1 1.5,2.9 3.7,2.9 13.9,3.5 29.7,1.5 8.3,-1 16.2,-2.5 20.2,-3.3 -4.1,-1 -12,-2.8 -20.3,-4.2 -7.6,-1.2 -13.9,-1.9 -18.9,-1.9 z"
       inkscape:connector-curvature="0"
       style="fill:#c0f3ee;fill-opacity:1" />
  </g>
  <g
     id="XMLID_1203_-9"
     transform="matrix(0.5427701,0,0,0.45665724,-100.9637,1.858714)"
     style="fill:#51c8bb;fill-opacity:1">
    <path
       id="XMLID_339_-8"
       class="st3"
       d="m 281,52.4 c 0,0 55.1,12.2 55.1,-1.2 0,-13.4 -55.1,1.2 -55.1,1.2 z"
       inkscape:connector-curvature="0"
       style="fill:#51c8bb;fill-opacity:1" />
    <path
       id="XMLID_365_-9"
       class="st1"
       d="m 320.1,58.2 c -16,0 -38,-4.8 -39.3,-5.1 l -2.7,-0.6 2.7,-0.7 c 1.8,-0.5 44.6,-11.6 54,-4.4 1.3,1 2,2.3 2,3.9 0,1.6 -0.7,2.9 -2,4 -2.7,2.1 -8.2,2.9 -14.7,2.9 z M 284,52.3 c 4.1,0.8 11.9,2.3 20.2,3.3 15.7,1.9 26,1.4 29.7,-1.5 1,-0.8 1.5,-1.7 1.5,-2.9 0,-1.1 -0.5,-2.1 -1.4,-2.8 -3.6,-2.8 -13.9,-2.9 -29.7,-0.3 -8.3,1.4 -16.2,3.2 -20.3,4.2 z"
       inkscape:connector-curvature="0"
       style="fill:#51c8bb;fill-opacity:1" />
  </g>
  <path
     style="fill:#d8607d;fill-opacity:1;stroke:none;stroke-width:1.10861099px;stroke-linecap:butt;stroke-linejoin:miter;stroke-opacity:1"
     d="m 96.56516,30.347841 -3.98895,-2.4749 -1.38063,-1.36019 -0.94298,-1.72812 -0.64865,-2.43396 0.0756,-2.22229 0.48108,-2.29698 0.67958,-1.63763 0.81901,-1.16494 1.6503,-1.84062 1.92851,-0.80122 3.25903,-0.5434 1.77955,-0.31249 -1.1043,1.63494 -0.56307,1.39239 -1.07551,2.8731 -0.68287,3.24178 -0.46877,3.90947 -0.15868,3.11542 z"
     id="path15810"
     inkscape:connector-curvature="0"
     sodipodi:nodetypes="cccccccccccccccccccc" />
  <path
     style="fill:#d8607d;fill-opacity:1;stroke:none;stroke-width:0.9410069px;stroke-linecap:butt;stroke-linejoin:miter;stroke-opacity:1"
     d="m 152.75404,26.834651 1.56325,-2.00688 0.88572,-2.69675 0.0156,-2.2234 -0.27378,-2.3148 -0.43748,-1.66426 -0.55277,-1.19775 -1.12983,-1.90722 -1.33806,-0.99808 -1.88188,-0.69248 -1.69724,-0.24914 0.36583,0.54364 1.13375,1.7544 1.05756,1.82358 0.79334,2.09051 0.60264,1.77264 0.54665,2.1055 0.33898,2.72577 z"
     id="path15810-5"
     inkscape:connector-curvature="0"
     sodipodi:nodetypes="ccccccccccccccccccc" />
  <path
     style="opacity:1;fill:#f398a0;fill-opacity:1;stroke:none;stroke-width:2.2519176;stroke-miterlimit:4;stroke-dasharray:none;stroke-opacity:1"
     d="M 124.32147,0 A 28.466471,24.183058 0 0 0 95.855,24.183061 28.466471,24.183058 0 0 0 124.32147,48.366121 28.466471,24.183058 0 0 0 152.78794,24.183061 28.466471,24.183058 0 0 0 124.32147,0 Z"
     id="path16721"
     inkscape:connector-curvature="0" />
  <path
     style="opacity:1;fill:#4482a1;fill-opacity:1;stroke:none;stroke-width:0.02762136;stroke-miterlimit:4;stroke-dasharray:none;stroke-opacity:1"
     d=""
     id="path16556"
     inkscape:connector-curvature="0" />
  <path
     style="opacity:1;fill:#4482a1;fill-opacity:1;stroke:none;stroke-width:0.02762136;stroke-miterlimit:4;stroke-dasharray:none;stroke-opacity:1"
     d=""
     id="path16558"
     inkscape:connector-curvature="0" />
  <path
     style="opacity:1;fill:#4482a1;fill-opacity:1;stroke:none;stroke-width:0.02762136;stroke-miterlimit:4;stroke-dasharray:none;stroke-opacity:1"
     d=""
     id="path16560"
     inkscape:connector-curvature="0" />
  <path
     style="opacity:1;fill:#4482a1;fill-opacity:1;stroke:none;stroke-width:0.05524272;stroke-miterlimit:4;stroke-dasharray:none;stroke-opacity:1"
     d=""
     id="path16572"
     inkscape:connector-curvature="0" />
  <rect
     style="opacity:0.98999999;fill:#fcf279;fill-opacity:0.99215896;stroke:#d8f1e9;stroke-width:0;stroke-linecap:round;stroke-linejoin:round;stroke-miterlimit:4;stroke-dasharray:none;stroke-dashoffset:0;stroke-opacity:1"
     id="rect3951-7"
     width="13.771576"
     height="40.872047"
     x="30.405788"
     y="-72.605804"
     ry="5.7682319"
     transform="matrix(0.01311281,0.99991402,-0.99979236,0.02037736,0,0)" />
  <rect
     style="opacity:0.98999999;fill:#fdf379;fill-opacity:0.98431373;stroke:#d8f1e9;stroke-width:0;stroke-linecap:round;stroke-linejoin:round;stroke-miterlimit:4;stroke-dasharray:none;stroke-dashoffset:0;stroke-opacity:1"
     id="rect3951-7-4"
     width="13.767746"
     height="42.650799"
     x="33.234028"
     y="-214.70901"
     ry="6.0192661"
     transform="matrix(0.0135688,0.99990794,-0.99981272,0.01935259,0,0)" />
  <path
     style="fill:#ffffff;fill-opacity:0.60821922;stroke-width:1.35701609"
     d="m 114.52988,21.681131 c -2.43474,-0.6185 -4.88253,1.01528 -5.44981,3.65588 -0.56989,2.63213 0.94807,5.27131 3.38674,5.8884 2.42561,0.61568 4.86295,-1.02235 5.43285,-3.65166 0.56989,-2.642 -0.94417,-5.28119 -3.36978,-5.89262 z"
     id="path193-0-8"
     inkscape:connector-curvature="0" />
  <path
     inkscape:connector-curvature="0"
     id="path2751-1-4"
     d="m 139.38632,18.548371 c -0.0845,0.40817 0.1476,0.81453 0.5183,0.90754 0.3707,0.0931 0.73977,-0.1625 0.82425,-0.57065 0.53428,-2.5813 -0.93837,-5.15991 -3.28276,-5.74817 -2.3444,-0.58825 -4.68635,1.03319 -5.22062,3.61448 -0.0845,0.40815 0.14758,0.81452 0.51829,0.90754 0.37069,0.0931 0.73978,-0.1625 0.82425,-0.57067 0.36558,-1.76626 1.96804,-2.87573 3.57222,-2.47319 1.60416,0.40252 2.61163,2.16694 2.24607,3.93312 z"
     style="fill:#000000;fill-opacity:1;stroke-width:0.07895435" />
  <path
     inkscape:connector-curvature="0"
     id="path2751-1-8-0"
     d="m 124.11381,23.807901 c 0.0112,-0.65557 0.11945,-1.27511 -0.29695,-1.2528 -0.41642,0.0223 -0.8476,0.34757 -0.85862,1.00312 -0.0696,4.14587 2.01612,7.40393 4.6495,7.26279 2.63339,-0.14114 4.91712,-3.40446 4.98676,-7.55032 0.0112,-0.65556 -0.31768,-1.16899 -0.73407,-1.14668 -0.41641,0.0223 -0.32669,0.54258 -0.33769,1.19814 0.55882,3.17943 -2.00418,6.63412 -3.80609,6.7307 -1.80191,0.0966 -4.09108,-2.99515 -3.60284,-6.24495 z"
     style="fill:#000000;fill-opacity:1;stroke-width:0.1033515"
     sodipodi:nodetypes="cccsccccc" />
  <path
     style="fill:#ffffff;fill-opacity:0.60821922;stroke-width:1.35701609"
     d="m 141.97507,21.705821 c -2.43475,-0.61849 -4.88253,1.0153 -5.44981,3.6559 -0.56989,2.63213 0.94807,5.27131 3.38673,5.8884 2.42562,0.61567 4.86296,-1.02235 5.43287,-3.65166 0.56988,-2.642 -0.94418,-5.2812 -3.36979,-5.89264 z"
     id="path193-0-9-8"
     inkscape:connector-curvature="0" />
  <path
     inkscape:connector-curvature="0"
     id="path2751-1-0-9"
     d="m 114.52988,18.696881 c 0.0863,0.40815 -0.15072,0.81452 -0.52929,0.90753 -0.37857,0.0931 -0.75546,-0.1625 -0.84173,-0.57065 -0.54561,-2.5813 0.95828,-5.15991 3.35238,-5.74817 2.39412,-0.58825 4.78575,1.03318 5.33135,3.61447 0.0863,0.40817 -0.1507,0.81453 -0.52929,0.90756 -0.37855,0.093 -0.75546,-0.16252 -0.84172,-0.57068 -0.37334,-1.76626 -2.00979,-2.87573 -3.64798,-2.4732 -1.63819,0.40253 -2.66702,2.16696 -2.29372,3.93314 z"
     style="fill:#000000;fill-opacity:1;stroke-width:0.07978719" />
  <path
     style="fill:#c9456b;fill-opacity:1;stroke:none;stroke-width:0.943174px;stroke-linecap:butt;stroke-linejoin:miter;stroke-opacity:1"
     d="m 102.9851,41.258621 -2.53988,0.0587 1.89178,1.38756 2.75213,2.28125 2.33514,1.71875 3.7251,1.8125 3.19692,0.8125 3.00232,0.375 5.00388,0.375 5.08727,0.0625 3.88699,-0.45556 3.47982,-0.76319 4.0031,-1.5 3.97529,-2.15625 2.50194,-2 1.86255,-1.8125 0.12884,-0.15625 -2.85259,5e-5 -1.27935,1.03125 -3.25251,2.15625 -3.75291,1.71875 -3.7807,1.25 -2.50194,0.46875 -3.30811,0.375 -4.72588,-0.0312 -4.0309,-0.53125 -3.8085,-1.03125 -2.44634,-0.875 -3.22471,-1.59375 -2.86333,-1.90625 -1.31654,-1.08016 z"
     id="path16773"
     inkscape:connector-curvature="0"
     sodipodi:nodetypes="cccccccccccccccccccccccccccccccc" />
  <ellipse
     style="opacity:1;fill:#e5a5b3;fill-opacity:1;stroke:none;stroke-width:2.35793495;stroke-miterlimit:4;stroke-dasharray:none;stroke-opacity:1"
     id="path16777"
     cx="50.776966"
     cy="26.014503"
     rx="2.4463375"
     ry="2.375" />
  <ellipse
     style="opacity:1;fill:#e5a5b3;fill-opacity:1;stroke:none;stroke-width:2.35793495;stroke-miterlimit:4;stroke-dasharray:none;stroke-opacity:1"
     id="path16777-8"
     cx="196.21678"
     cy="26.078827"
     rx="2.4463375"
     ry="2.375" />
</svg>
